<?xml version='1.0' encoding='ascii'?>
<svg xmlns="http://www.w3.org/2000/svg" height="1080" version="1.1" width="1920">
    <g id="View Layer_LineSet" inkscape:groupmode="lineset" inkscape:label="View Layer_LineSet" xmlns:inkscape="http://www.inkscape.org/namespaces/inkscape">
        <g id="strokes" inkscape:groupmode="layer" inkscape:label="strokes" xmlns:inkscape="http://www.inkscape.org/namespaces/inkscape">
            <path d=" M 1050.895, 637.823 1041.089, 639.783 1031.283, 641.744 1021.477, 643.704 1011.671, 645.664 1001.865, 647.624 992.059, 649.584 982.253, 651.545 972.447, 653.505 962.641, 655.465 952.835, 657.425 943.029, 659.385 933.223, 661.346 923.417, 663.306 913.611, 665.266 903.805, 667.226 893.999, 669.186 884.193, 671.147 874.387, 673.107 864.581, 675.067 854.775, 677.027 844.969, 678.987 835.163, 680.948 825.357, 682.908 815.551, 684.868 805.745, 686.828 795.939, 688.788 786.133, 690.749 776.327, 692.709 766.521, 694.669 756.716, 696.629 746.909, 698.589 737.103, 700.550 727.297, 702.510 717.491, 704.470 707.685, 706.430 697.879, 708.390 688.073, 710.351 678.268, 712.311 673.545, 713.255 682.537, 717.630 691.529, 722.006 700.521, 726.382 709.513, 730.757 718.505, 735.133 727.497, 739.508 736.489, 743.884 745.481, 748.259 754.473, 752.635 763.464, 757.010 772.456, 761.386 781.448, 765.761 790.440, 770.137 799.432, 774.512 808.424, 778.888 817.416, 783.264 826.408, 787.639 835.400, 792.015 844.392, 796.390 853.384, 800.766 862.376, 805.141 871.367, 809.517 880.359, 813.892 889.351, 818.268 898.343, 822.643 907.335, 827.019 916.327, 831.395 925.319, 835.770 934.311, 840.146 943.303, 844.521 952.295, 848.897 961.287, 853.272 970.279, 857.648 979.271, 862.023 988.262, 866.399 997.254, 870.774 1001.176, 872.683 1010.855, 870.171 1020.535, 867.660 1030.214, 865.148 1039.894, 862.637 1049.573, 860.126 1059.253, 857.614 1068.932, 855.103 1078.612, 852.591 1088.291, 850.080 1097.971, 847.568 1107.650, 845.057 1117.330, 842.546 1127.009, 840.034 1136.689, 837.523 1146.368, 835.011 1156.048, 832.500 1165.727, 829.989 1175.407, 827.477 1185.086, 824.966 1194.766, 822.454 1204.445, 819.943 1214.125, 817.431 1223.804, 814.920 1233.484, 812.409 1243.163, 809.897 1252.843, 807.386 1262.522, 804.874 1272.202, 802.363 1281.881, 799.852 1291.561, 797.340 1301.240, 794.829 1310.920, 792.317 1320.599, 789.806 1330.279, 787.294 1339.958, 784.783 1349.638, 782.272 1359.317, 779.760 1368.997, 777.249 1378.676, 774.737 1388.356, 772.226 1398.035, 769.715 1407.715, 767.203 1417.394, 764.692 1427.074, 762.180 1436.753, 759.669 1446.433, 757.158 1456.112, 754.646 1464.027, 752.593 1454.580, 749.313 1445.133, 746.033 1435.686, 742.754 1426.240, 739.474 1416.793, 736.194 1407.346, 732.915 1397.899, 729.635 1388.452, 726.355 1379.005, 723.076 1369.558, 719.796 1360.111, 716.516 1350.664, 713.237 1341.217, 709.957 1331.771, 706.677 1322.324, 703.398 1312.877, 700.118 1303.430, 696.839 1293.983, 693.559 1284.536, 690.279 1275.089, 687.000 1265.642, 683.720 1256.195, 680.440 1246.748, 677.161 1237.302, 673.881 1227.855, 670.601 1218.408, 667.322 1208.961, 664.042 1199.514, 660.762 1190.067, 657.483 1180.620, 654.203 1171.173, 650.923 1161.726, 647.644 1152.279, 644.364 1142.833, 641.084 1133.386, 637.805 1123.939, 634.525 1114.492, 631.246 1103.277, 627.352 1093.471, 629.312 1083.665, 631.273 1073.859, 633.233 1069.950, 634.014 " fill="none" stroke="rgb(0, 0, 0)" stroke-linecap="butt" stroke-linejoin="round" stroke-opacity="1.0" stroke-width="3.0" />
            <path d=" M 1050.776, 652.102 1048.587, 652.183 1040.534, 652.951 1033.206, 654.148 1026.874, 655.730 1021.783, 657.641 1018.130, 659.812 1016.067, 662.164 1013.396, 671.800 1010.724, 681.437 1008.053, 691.073 1005.382, 700.710 1002.711, 710.347 1000.039, 719.983 997.653, 728.591 997.036, 732.322 998.828, 736.061 1002.991, 739.662 1009.391, 742.981 1017.798, 745.883 1027.534, 748.162 1027.892, 748.246 1037.779, 749.742 1039.277, 749.968 1049.243, 750.791 1051.496, 750.977 1061.494, 751.177 1064.048, 751.228 1074.040, 750.810 1076.420, 750.711 1086.362, 749.635 1088.103, 749.446 1097.935, 747.619 1098.625, 747.491 1107.564, 744.928 1114.577, 741.866 1119.405, 738.433 1121.883, 734.767 1121.945, 731.015 1119.446, 721.332 1116.948, 711.649 1114.449, 701.966 1111.950, 692.284 1109.452, 682.601 1106.953, 672.918 1104.587, 663.752 1102.985, 661.330 1099.758, 659.031 1095.042, 656.942 1089.026, 655.138 1081.941, 653.685 1074.054, 652.633 1069.765, 652.321 " fill="none" stroke="rgb(0, 0, 0)" stroke-linecap="butt" stroke-linejoin="round" stroke-opacity="1.0" stroke-width="3.0" />
            <path d=" M 1104.587, 663.752 1104.488, 666.206 1102.675, 668.597 1099.203, 670.831 1094.194, 672.819 1087.838, 674.479 1080.377, 675.744 1072.108, 676.561 1063.360, 676.896 1054.484, 676.734 1045.840, 676.082 1037.773, 674.968 1030.604, 673.438 1024.614, 671.555 1020.029, 669.397 1017.019, 667.050 1015.686, 664.607 1016.067, 662.164 " fill="none" stroke="rgb(0, 0, 0)" stroke-linecap="butt" stroke-linejoin="round" stroke-opacity="1.0" stroke-width="3.0" />
            <path d=" M 1051.328, 585.940 1051.245, 595.940 1051.161, 605.940 1051.078, 615.939 1050.995, 625.939 1050.911, 635.939 1050.895, 637.823 1050.812, 647.823 1050.776, 652.102 1050.693, 662.101 1050.677, 663.994 1050.984, 664.514 1051.645, 665.010 1052.635, 665.465 1053.916, 665.860 1055.438, 666.180 1057.145, 666.412 1058.968, 666.548 1060.838, 666.581 1062.682, 666.512 1064.428, 666.342 1066.009, 666.078 1067.364, 665.730 1068.440, 665.313 1069.196, 664.841 1069.604, 664.335 1069.649, 663.812 1069.750, 653.812 1069.765, 652.321 1069.866, 642.321 1069.950, 634.014 1070.051, 624.015 1070.151, 614.015 1070.252, 604.016 1070.353, 594.016 1070.454, 584.017 1070.555, 574.017 1070.656, 564.018 1070.757, 554.018 1070.858, 544.019 1070.959, 534.019 1071.060, 524.020 1071.161, 514.020 1071.261, 504.021 1071.362, 494.021 1071.463, 484.022 1071.564, 474.022 1071.665, 464.023 1071.766, 454.023 1071.867, 444.024 1071.968, 434.024 1072.069, 424.025 1072.170, 414.025 1072.271, 404.026 1072.371, 394.026 1072.472, 384.027 1072.573, 374.028 1072.674, 364.028 1072.775, 354.029 1072.876, 344.029 1072.977, 334.030 1073.078, 324.030 1073.179, 314.031 1073.280, 304.031 1073.381, 294.032 1073.481, 284.032 1073.573, 275.016 " fill="none" stroke="rgb(0, 0, 0)" stroke-linecap="butt" stroke-linejoin="round" stroke-opacity="1.0" stroke-width="3.0" />
            <path d=" M 1056.051, 218.378 1046.089, 219.250 1036.415, 220.096 1036.348, 230.096 1036.280, 240.096 1036.267, 242.005 " fill="none" stroke="rgb(0, 0, 0)" stroke-linecap="butt" stroke-linejoin="round" stroke-opacity="1.0" stroke-width="3.0" />
            <path d=" M 1038.531, 223.967 1048.403, 225.561 1058.275, 227.155 1061.171, 227.622 1063.321, 227.969 1065.059, 228.250 1064.986, 236.096 1064.894, 246.095 1064.801, 256.095 1064.786, 257.628 1064.720, 264.779 1064.688, 268.260 1064.681, 268.913 1064.656, 271.604 1064.655, 271.766 " fill="none" stroke="rgb(0, 0, 0)" stroke-linecap="butt" stroke-linejoin="round" stroke-opacity="1.0" stroke-width="3.0" />
            <path d=" M 1036.161, 257.779 1036.093, 267.779 1036.078, 270.054 1045.912, 271.865 1053.937, 273.342 1063.772, 275.153 1066.812, 275.713 1073.573, 275.016 1083.520, 273.989 1091.711, 273.144 1091.828, 263.145 1091.945, 253.146 1092.062, 243.146 1092.179, 233.147 1092.300, 222.789 1082.420, 221.240 1073.061, 219.773 " fill="none" stroke="rgb(0, 0, 0)" stroke-linecap="butt" stroke-linejoin="round" stroke-opacity="1.0" stroke-width="3.0" />
            <path d=" M 1092.300, 222.789 1082.340, 223.681 1072.380, 224.573 1067.293, 225.028 " fill="none" stroke="rgb(0, 0, 0)" stroke-linecap="butt" stroke-linejoin="round" stroke-opacity="1.0" stroke-width="3.0" />
            <path d=" M 1036.415, 220.096 1046.290, 221.673 1052.762, 222.707 1062.636, 224.284 1063.354, 224.399 1067.293, 225.028 1067.198, 235.027 1067.185, 236.459 1067.090, 246.458 1066.995, 256.458 1066.980, 258.013 1066.912, 265.172 1066.876, 268.984 1066.852, 271.542 1066.812, 275.713 " fill="none" stroke="rgb(0, 0, 0)" stroke-linecap="butt" stroke-linejoin="round" stroke-opacity="1.0" stroke-width="3.0" />
            <path d=" M 1038.232, 266.946 1038.302, 256.946 1038.307, 256.223 " fill="none" stroke="rgb(0, 0, 0)" stroke-linecap="butt" stroke-linejoin="round" stroke-opacity="1.0" stroke-width="3.0" />
            <path d=" M 1064.720, 264.779 1062.987, 264.469 1063.053, 257.323 " fill="none" stroke="rgb(0, 0, 0)" stroke-linecap="butt" stroke-linejoin="round" stroke-opacity="1.0" stroke-width="3.0" />
            <path d=" M 1064.655, 271.766 1054.817, 269.971 1054.283, 269.874 1044.445, 268.079 1038.232, 266.946 1048.183, 265.950 1058.133, 264.955 1062.987, 264.469 " fill="none" stroke="rgb(0, 0, 0)" stroke-linecap="butt" stroke-linejoin="round" stroke-opacity="1.0" stroke-width="3.0" />
            <path d=" M 795.877, 376.133 795.852, 376.034 793.337, 366.356 791.663, 359.916 789.584, 350.135 788.137, 343.330 786.489, 333.467 785.312, 326.421 784.094, 316.495 783.203, 309.235 782.411, 299.266 781.820, 291.821 781.780, 290.745 " fill="none" stroke="rgb(0, 0, 0)" stroke-linecap="butt" stroke-linejoin="round" stroke-opacity="1.0" stroke-width="3.0" />
            <path d=" M 765.905, 291.057 765.962, 292.542 766.771, 302.509 767.426, 310.591 768.663, 320.514 769.645, 328.402 771.313, 338.262 772.608, 345.923 774.709, 355.700 776.300, 363.105 778.838, 372.778 780.706, 379.902 780.840, 380.377 783.816, 389.924 785.954, 396.781 789.371, 406.179 791.745, 412.709 795.604, 421.935 798.191, 428.120 802.492, 437.148 805.267, 442.974 810.009, 451.778 812.949, 457.236 818.129, 465.789 821.208, 470.871 826.823, 479.146 830.016, 483.850 836.061, 491.816 839.344, 496.142 845.810, 503.770 849.161, 507.723 849.683, 508.309 856.560, 515.569 859.973, 519.171 867.248, 526.032 870.689, 529.276 878.346, 535.708 881.798, 538.608 889.818, 544.581 893.267, 547.149 901.628, 552.635 905.062, 554.888 913.739, 559.860 917.151, 561.815 917.921, 562.232 926.885, 566.665 930.277, 568.342 939.497, 572.214 942.858, 573.626 952.301, 576.919 955.632, 578.080 965.262, 580.778 968.566, 581.704 978.345, 583.797 981.628, 584.499 982.502, 584.655 992.392, 586.135 995.655, 586.623 1005.617, 587.487 1008.871, 587.770 1018.868, 588.020 1022.119, 588.102 1032.113, 587.744 1035.369, 587.628 1045.323, 586.672 1048.591, 586.358 1049.431, 586.236 1051.328, 585.940 " fill="none" stroke="rgb(0, 0, 0)" stroke-linecap="butt" stroke-linejoin="round" stroke-opacity="1.0" stroke-width="3.0" />
            <path d=" M 861.000, 498.203 860.834, 498.006 854.396, 490.354 851.606, 487.039 845.589, 479.052 842.684, 475.195 837.096, 466.901 834.263, 462.696 829.110, 454.125 826.370, 449.569 821.656, 440.750 819.034, 435.845 814.760, 426.804 812.279, 421.556 808.446, 412.320 806.129, 406.737 802.737, 397.330 800.608, 391.426 797.655, 381.871 795.852, 376.034 " fill="none" stroke="rgb(0, 0, 0)" stroke-linecap="butt" stroke-linejoin="round" stroke-opacity="1.0" stroke-width="3.0" />
            <path d=" M 924.933, 549.164 924.612, 548.978 915.957, 543.970 913.372, 542.474 905.034, 536.954 902.096, 535.009 894.100, 529.003 891.136, 526.777 883.505, 520.315 880.525, 517.791 873.276, 510.902 870.293, 508.067 863.443, 500.782 860.834, 498.006 " fill="none" stroke="rgb(0, 0, 0)" stroke-linecap="butt" stroke-linejoin="round" stroke-opacity="1.0" stroke-width="3.0" />
            <path d=" M 985.080, 570.338 984.849, 570.287 975.080, 568.153 972.581, 567.607 962.964, 564.868 960.208, 564.083 950.780, 560.750 947.993, 559.765 938.790, 555.853 935.966, 554.653 927.021, 550.182 924.612, 548.978 " fill="none" stroke="rgb(0, 0, 0)" stroke-linecap="butt" stroke-linejoin="round" stroke-opacity="1.0" stroke-width="3.0" />
            <path d=" M 1047.542, 572.080 1047.537, 572.080 1037.580, 572.997 1034.863, 573.247 1024.868, 573.564 1022.160, 573.650 1012.164, 573.358 1009.463, 573.279 999.505, 572.373 996.802, 572.127 986.918, 570.606 984.849, 570.287 " fill="none" stroke="rgb(0, 0, 0)" stroke-linecap="butt" stroke-linejoin="round" stroke-opacity="1.0" stroke-width="3.0" />
            <path d=" M 769.689, 173.113 779.450, 172.431 789.426, 171.733 799.402, 171.035 809.377, 170.338 819.353, 169.640 829.329, 168.943 839.304, 168.245 849.280, 167.548 859.255, 166.850 869.231, 166.153 879.207, 165.455 889.182, 164.758 899.158, 164.060 909.134, 163.362 919.109, 162.665 929.085, 161.967 939.061, 161.270 949.036, 160.572 959.012, 159.875 968.987, 159.177 978.963, 158.479 988.939, 157.782 998.914, 157.084 1008.890, 156.387 1018.866, 155.689 1028.841, 154.992 1038.817, 154.294 1048.793, 153.597 1056.606, 153.050 1066.582, 152.353 1073.740, 151.852 1083.715, 151.155 1085.716, 151.015 1085.790, 144.380 1075.861, 143.190 1070.306, 142.524 1060.329, 143.196 1050.352, 143.868 1040.374, 144.540 1030.397, 145.212 1020.419, 145.884 1010.442, 146.556 1000.465, 147.228 990.487, 147.900 980.510, 148.572 970.532, 149.244 960.555, 149.916 950.578, 150.588 940.600, 151.259 930.623, 151.931 920.645, 152.603 910.668, 153.275 900.691, 153.947 890.713, 154.619 880.736, 155.291 870.758, 155.963 860.781, 156.635 850.804, 157.307 840.826, 157.979 830.849, 158.651 820.871, 159.323 810.894, 159.995 800.917, 160.667 790.939, 161.338 780.962, 162.010 770.984, 162.682 761.007, 163.354 755.302, 163.738 755.430, 170.871 763.493, 172.139 769.689, 173.113 " fill="none" stroke="rgb(0, 0, 0)" stroke-linecap="butt" stroke-linejoin="round" stroke-opacity="1.0" stroke-width="3.0" />
            <path d=" M 755.302, 163.738 765.187, 165.253 769.569, 165.925 " fill="none" stroke="rgb(0, 0, 0)" stroke-linecap="butt" stroke-linejoin="round" stroke-opacity="1.0" stroke-width="3.0" />
            <path d=" M 769.689, 173.113 769.615, 168.658 769.569, 165.925 779.546, 165.245 789.523, 164.565 799.500, 163.885 809.476, 163.206 819.453, 162.526 829.430, 161.846 839.407, 161.167 849.384, 160.487 859.361, 159.807 869.338, 159.127 879.315, 158.448 889.291, 157.768 899.268, 157.088 909.245, 156.409 919.222, 155.729 929.199, 155.049 939.176, 154.369 949.153, 153.690 959.130, 153.010 969.106, 152.330 979.083, 151.650 989.060, 150.971 999.037, 150.291 1009.014, 149.611 1018.991, 148.932 1028.968, 148.252 1038.944, 147.572 1048.921, 146.892 1058.898, 146.213 1068.875, 145.533 1078.852, 144.853 1085.790, 144.380 " fill="none" stroke="rgb(0, 0, 0)" stroke-linecap="butt" stroke-linejoin="round" stroke-opacity="1.0" stroke-width="3.0" />
            <path d=" M 1073.045, 221.380 1073.006, 221.580 1072.642, 221.774 1071.966, 221.954 1071.002, 222.114 1069.789, 222.246 1068.372, 222.347 1067.317, 222.391 1066.807, 222.412 1065.154, 222.439 1063.477, 222.426 1063.372, 222.423 1061.841, 222.374 1061.219, 222.338 1060.309, 222.285 1058.941, 222.163 1058.926, 222.161 1057.790, 222.012 1056.900, 221.839 1056.304, 221.649 1056.025, 221.450 " fill="none" stroke="rgb(0, 0, 0)" stroke-linecap="butt" stroke-linejoin="round" stroke-opacity="1.0" stroke-width="3.0" />
            <path d=" M 1073.045, 221.380 1073.061, 219.773 1073.161, 209.774 1073.261, 199.774 1073.361, 189.775 1073.461, 179.775 1073.561, 169.776 1073.661, 159.776 1073.740, 151.852 " fill="none" stroke="rgb(0, 0, 0)" stroke-linecap="butt" stroke-linejoin="round" stroke-opacity="1.0" stroke-width="3.0" />
            <path d=" M 1059.451, 250.792 1059.422, 250.174 1059.501, 249.524 1059.489, 248.163 1059.497, 247.815 1059.525, 246.753 1059.458, 246.049 1059.499, 245.358 1059.402, 244.034 1059.376, 243.921 1059.306, 242.824 1059.037, 241.829 1059.034, 241.794 1058.713, 240.971 1058.162, 240.405 1057.402, 240.118 1056.464, 240.120 " fill="none" stroke="rgb(0, 0, 0)" stroke-linecap="butt" stroke-linejoin="round" stroke-opacity="1.0" stroke-width="3.0" />
            <path d=" M 831.817, 276.289 841.770, 275.322 851.723, 274.354 861.676, 273.387 871.630, 272.420 881.583, 271.453 891.536, 270.486 901.489, 269.518 911.442, 268.551 921.395, 267.584 931.348, 266.617 941.301, 265.650 951.254, 264.682 961.208, 263.715 971.161, 262.748 981.114, 261.781 991.067, 260.814 1001.020, 259.846 1003.629, 259.593 1009.261, 259.046 1010.397, 258.935 " fill="none" stroke="rgb(0, 0, 0)" stroke-linecap="butt" stroke-linejoin="round" stroke-opacity="1.0" stroke-width="3.0" />
            <path d=" M 1058.041, 254.305 1058.598, 254.070 1058.930, 253.588 1058.934, 253.564 1059.218, 252.859 1059.305, 252.010 1059.333, 251.921 " fill="none" stroke="rgb(0, 0, 0)" stroke-linecap="butt" stroke-linejoin="round" stroke-opacity="1.0" stroke-width="3.0" />
            <path d=" M 1059.333, 251.921 1059.364, 251.626 1059.451, 250.792 " fill="none" stroke="rgb(0, 0, 0)" stroke-linecap="butt" stroke-linejoin="round" stroke-opacity="1.0" stroke-width="3.0" />
            <path d=" M 1056.464, 240.120 1046.507, 241.050 1042.680, 241.407 1038.407, 241.806 1036.267, 242.005 1035.354, 242.091 " fill="none" stroke="rgb(0, 0, 0)" stroke-linecap="butt" stroke-linejoin="round" stroke-opacity="1.0" stroke-width="3.0" />
            <path d=" M 1064.986, 236.096 1063.249, 235.809 1061.101, 235.454 1052.127, 233.971 1050.505, 233.918 1048.880, 234.268 1047.312, 235.008 1045.863, 236.110 1044.589, 237.532 1043.539, 239.219 1042.754, 241.105 1042.680, 241.407 " fill="none" stroke="rgb(0, 0, 0)" stroke-linecap="butt" stroke-linejoin="round" stroke-opacity="1.0" stroke-width="3.0" />
            <path d=" M 764.977, 257.851 764.669, 257.873 762.347, 258.129 760.411, 258.437 758.935, 258.786 757.977, 259.162 757.575, 259.551 757.755, 269.549 757.934, 279.548 758.107, 289.177 758.280, 289.595 759.019, 289.994 760.299, 290.360 762.070, 290.678 764.267, 290.936 765.905, 291.057 766.803, 291.123 769.580, 291.233 772.490, 291.260 775.419, 291.204 778.254, 291.067 780.883, 290.854 781.780, 290.745 783.205, 290.574 785.129, 290.237 786.583, 289.858 787.512, 289.450 787.881, 289.030 787.749, 280.410 787.736, 279.558 787.583, 269.559 787.516, 265.219 787.427, 259.415 787.224, 259.029 786.457, 258.660 785.157, 258.325 783.375, 258.034 781.179, 257.799 780.807, 257.773 " fill="none" stroke="rgb(0, 0, 0)" stroke-linecap="butt" stroke-linejoin="round" stroke-opacity="1.0" stroke-width="3.0" />
            <path d=" M 787.427, 259.415 787.057, 259.805 786.125, 260.183 784.667, 260.535 782.737, 260.847 781.150, 261.024 780.859, 261.056 780.409, 261.107 777.772, 261.304 774.930, 261.431 771.993, 261.483 769.075, 261.458 766.291, 261.357 765.036, 261.271 763.911, 261.194 763.748, 261.183 761.547, 260.944 759.771, 260.648 758.488, 260.309 757.747, 259.938 757.575, 259.551 " fill="none" stroke="rgb(0, 0, 0)" stroke-linecap="butt" stroke-linejoin="round" stroke-opacity="1.0" stroke-width="3.0" />
            <path d=" M 780.829, 259.132 781.011, 259.220 781.124, 259.444 780.907, 259.669 780.838, 259.696 780.365, 259.887 779.521, 260.090 778.405, 260.269 777.061, 260.419 775.541, 260.533 773.902, 260.606 772.210, 260.636 770.528, 260.621 768.923, 260.563 767.457, 260.463 766.186, 260.325 765.159, 260.155 765.016, 260.117 764.416, 259.960 763.985, 259.746 763.882, 259.522 " fill="none" stroke="rgb(0, 0, 0)" stroke-linecap="butt" stroke-linejoin="round" stroke-opacity="1.0" stroke-width="3.0" />
            <path d=" M 763.882, 259.522 764.110, 259.297 764.660, 259.080 764.996, 259.000 " fill="none" stroke="rgb(0, 0, 0)" stroke-linecap="butt" stroke-linejoin="round" stroke-opacity="1.0" stroke-width="3.0" />
            <path d=" M 1002.307, 245.175 1002.858, 243.563 1003.816, 241.790 1004.982, 240.399 1006.311, 239.443 1007.754, 238.960 1009.254, 238.970 1010.755, 239.474 1012.197, 240.453 1013.526, 241.871 1014.689, 243.672 1014.801, 243.922 1014.839, 244.005 1015.641, 245.788 1016.345, 248.136 1016.773, 250.626 1016.909, 253.161 1016.748, 255.641 1016.296, 257.971 1016.156, 258.376 1016.125, 258.465 1015.570, 260.061 1014.601, 261.830 1013.424, 263.211 1012.087, 264.150 1010.641, 264.613 1009.142, 264.583 1007.648, 264.063 1006.214, 263.073 1004.897, 261.652 1003.746, 259.854 1003.629, 259.593 " fill="none" stroke="rgb(0, 0, 0)" stroke-linecap="butt" stroke-linejoin="round" stroke-opacity="1.0" stroke-width="3.0" />
            <path d=" M 1010.641, 264.613 1020.593, 263.631 1030.545, 262.649 1031.100, 262.594 1032.554, 262.132 1033.899, 261.196 1035.084, 259.822 1036.061, 258.061 1036.161, 257.779 1036.652, 256.384 1036.794, 255.982 1037.252, 253.663 1037.419, 251.196 1037.286, 248.675 1036.860, 246.198 1036.252, 244.180 1036.157, 243.863 1035.354, 242.091 1035.204, 241.759 1034.038, 239.969 1032.706, 238.560 1031.258, 237.588 1029.751, 237.088 1028.243, 237.079 1018.285, 237.993 1008.327, 238.908 1007.754, 238.960 " fill="none" stroke="rgb(0, 0, 0)" stroke-linecap="butt" stroke-linejoin="round" stroke-opacity="1.0" stroke-width="3.0" />
            <path d=" M 1010.016, 259.058 1010.397, 258.935 1010.835, 258.794 1011.592, 258.259 1012.257, 257.476 1012.805, 256.473 1013.215, 255.289 1013.470, 253.970 1013.561, 252.566 1013.483, 251.132 1013.241, 249.724 1012.843, 248.395 1012.305, 247.197 1011.647, 246.177 1010.896, 245.373 1010.079, 244.817 1009.230, 244.530 1009.218, 244.530 1008.380, 244.521 1008.018, 244.642 " fill="none" stroke="rgb(0, 0, 0)" stroke-linecap="butt" stroke-linejoin="round" stroke-opacity="1.0" stroke-width="3.0" />
            <path d=" M 1010.016, 259.058 1009.261, 259.046 " fill="none" stroke="rgb(0, 0, 0)" stroke-linecap="butt" stroke-linejoin="round" stroke-opacity="1.0" stroke-width="3.0" />
            <path d=" M 763.493, 172.139 763.666, 182.137 763.839, 192.136 764.012, 202.134 764.185, 212.133 764.358, 222.131 764.531, 232.130 764.705, 242.128 764.878, 252.127 764.977, 257.851 764.996, 259.000 765.016, 260.117 " fill="none" stroke="rgb(0, 0, 0)" stroke-linecap="butt" stroke-linejoin="round" stroke-opacity="1.0" stroke-width="3.0" />
            <path d=" M 780.838, 259.696 780.829, 259.132 780.807, 257.773 780.648, 247.775 780.489, 237.776 780.330, 227.777 780.171, 217.779 780.012, 207.780 779.853, 197.781 779.694, 187.782 779.535, 177.784 779.450, 172.431 " fill="none" stroke="rgb(0, 0, 0)" stroke-linecap="butt" stroke-linejoin="round" stroke-opacity="1.0" stroke-width="3.0" />
            <path d=" M 787.749, 280.410 797.706, 279.479 807.662, 278.548 817.619, 277.617 827.575, 276.685 831.817, 276.289 " fill="none" stroke="rgb(0, 0, 0)" stroke-linecap="butt" stroke-linejoin="round" stroke-opacity="1.0" stroke-width="3.0" />
            <path d=" M 1038.407, 241.806 1038.476, 231.806 1038.531, 223.967 " fill="none" stroke="rgb(0, 0, 0)" stroke-linecap="butt" stroke-linejoin="round" stroke-opacity="1.0" stroke-width="3.0" />
            <path d=" M 1053.937, 273.342 1053.854, 283.342 1053.770, 293.342 1053.687, 303.341 1053.603, 313.341 1053.520, 323.341 1053.436, 333.340 1053.353, 343.340 1053.270, 353.339 1053.186, 363.339 1053.103, 373.339 1053.019, 383.338 1052.936, 393.338 1052.852, 403.338 1052.769, 413.337 1052.685, 423.337 1052.602, 433.337 1052.519, 443.336 1052.435, 453.336 1052.352, 463.336 1052.268, 473.335 1052.185, 483.335 1052.101, 493.335 1052.018, 503.334 1051.934, 513.334 1051.851, 523.334 1051.767, 533.333 1051.684, 543.333 1051.601, 553.333 1051.517, 563.332 1051.449, 571.485 " fill="none" stroke="rgb(0, 0, 0)" stroke-linecap="butt" stroke-linejoin="round" stroke-opacity="1.0" stroke-width="3.0" />
            <path d=" M 1009.218, 244.530 1008.018, 244.642 1002.307, 245.175 992.350, 246.104 982.393, 247.033 972.436, 247.962 962.480, 248.891 952.523, 249.820 942.566, 250.750 932.609, 251.679 922.653, 252.608 912.696, 253.537 902.739, 254.466 892.782, 255.396 882.826, 256.325 872.869, 257.254 862.912, 258.183 852.956, 259.112 842.999, 260.041 833.042, 260.971 823.085, 261.900 813.129, 262.829 803.172, 263.758 793.215, 264.687 787.516, 265.219 " fill="none" stroke="rgb(0, 0, 0)" stroke-linecap="butt" stroke-linejoin="round" stroke-opacity="1.0" stroke-width="3.0" />
            <path d=" M 1056.606, 153.050 1056.521, 163.050 1056.436, 173.050 1056.351, 183.049 1056.266, 193.049 1056.182, 203.048 1056.097, 213.048 1056.051, 218.378 1056.025, 221.450 " fill="none" stroke="rgb(0, 0, 0)" stroke-linecap="butt" stroke-linejoin="round" stroke-opacity="1.0" stroke-width="3.0" />
            <path d=" M 1036.652, 256.384 1038.307, 256.223 1048.260, 255.256 1050.204, 255.067 1058.041, 254.305 " fill="none" stroke="rgb(0, 0, 0)" stroke-linecap="butt" stroke-linejoin="round" stroke-opacity="1.0" stroke-width="3.0" />
            <path d=" M 1051.449, 571.485 1047.537, 572.080 " fill="none" stroke="rgb(0, 0, 0)" stroke-linecap="butt" stroke-linejoin="round" stroke-opacity="1.0" stroke-width="3.0" />
            <path d=" M 1063.249, 235.809 1063.321, 227.969 " fill="none" stroke="rgb(0, 0, 0)" stroke-linecap="butt" stroke-linejoin="round" stroke-opacity="1.0" stroke-width="3.0" />
            <path d=" M 1050.204, 255.067 1060.054, 256.797 1060.909, 256.947 1063.053, 257.323 1064.786, 257.628 " fill="none" stroke="rgb(0, 0, 0)" stroke-linecap="butt" stroke-linejoin="round" stroke-opacity="1.0" stroke-width="3.0" />
        </g>
    </g>
</svg>
