<?xml version="1.0" encoding="UTF-8" standalone="no"?>
<svg
   xmlns:dc="http://purl.org/dc/elements/1.1/"
   xmlns:cc="http://creativecommons.org/ns#"
   xmlns:rdf="http://www.w3.org/1999/02/22-rdf-syntax-ns#"
   xmlns:svg="http://www.w3.org/2000/svg"
   xmlns="http://www.w3.org/2000/svg"
   xmlns:sodipodi="http://sodipodi.sourceforge.net/DTD/sodipodi-0.dtd"
   xmlns:inkscape="http://www.inkscape.org/namespaces/inkscape"
   width="96.667786mm"
   height="60.644657mm"
   viewBox="0 0 96.667786 60.644657"
   version="1.1"
   id="svg1217"
   inkscape:version="1.0.1 (0767f8302a, 2020-10-17)"
   sodipodi:docname="Din_Corpo_2.svg">
  <defs
     id="defs1211">
    <marker
       style="overflow:visible"
       id="marker3226"
       refX="0"
       refY="0"
       orient="auto"
       inkscape:stockid="Arrow1Lend"
       inkscape:isstock="true">
      <path
         transform="matrix(-0.8,0,0,-0.8,-10,0)"
         style="fill:#000000;fill-opacity:1;fill-rule:evenodd;stroke:#000000;stroke-width:1pt;stroke-opacity:1"
         d="M 0,0 5,-5 -12.5,0 5,5 Z"
         id="path3224" />
    </marker>
    <marker
       style="overflow:visible"
       id="marker3216"
       refX="0"
       refY="0"
       orient="auto"
       inkscape:stockid="Arrow1Lend"
       inkscape:isstock="true">
      <path
         transform="matrix(-0.8,0,0,-0.8,-10,0)"
         style="fill:#000000;fill-opacity:1;fill-rule:evenodd;stroke:#000000;stroke-width:1pt;stroke-opacity:1"
         d="M 0,0 5,-5 -12.5,0 5,5 Z"
         id="path3214" />
    </marker>
    <marker
       style="overflow:visible"
       id="Arrow1Lstart"
       refX="0"
       refY="0"
       orient="auto"
       inkscape:stockid="Arrow1Lstart"
       inkscape:isstock="true">
      <path
         transform="matrix(0.8,0,0,0.8,10,0)"
         style="fill:#000000;fill-opacity:1;fill-rule:evenodd;stroke:#000000;stroke-width:1pt;stroke-opacity:1"
         d="M 0,0 5,-5 -12.5,0 5,5 Z"
         id="path2806" />
    </marker>
  </defs>
  <sodipodi:namedview
     id="base"
     pagecolor="#ffffff"
     bordercolor="#666666"
     borderopacity="1.0"
     inkscape:pageopacity="0.0"
     inkscape:pageshadow="2"
     inkscape:zoom="1.979899"
     inkscape:cx="277.89383"
     inkscape:cy="134.87016"
     inkscape:document-units="mm"
     inkscape:current-layer="layer1"
     inkscape:document-rotation="0"
     showgrid="false"
     showguides="true"
     inkscape:guide-bbox="true"
     inkscape:snap-global="false"
     inkscape:window-width="1920"
     inkscape:window-height="1016"
     inkscape:window-x="0"
     inkscape:window-y="27"
     inkscape:window-maximized="1">
    <sodipodi:guide
       position="62.708969,37.602021"
       orientation="1,0"
       id="guide2752" />
    <sodipodi:guide
       position="93.1932,38.189931"
       orientation="1,0"
       id="guide2802" />
  </sodipodi:namedview>
  <metadata
     id="metadata1214">
    <rdf:RDF>
      <cc:Work
         rdf:about="">
        <dc:format>image/svg+xml</dc:format>
        <dc:type
           rdf:resource="http://purl.org/dc/dcmitype/StillImage" />
        <dc:title></dc:title>
      </cc:Work>
    </rdf:RDF>
  </metadata>
  <g
     inkscape:label="Layer 1"
     inkscape:groupmode="layer"
     id="layer1"
     transform="translate(-51.94965,-69.298981)">
    <circle
       style="fill:#ffffff;stroke:#000000;stroke-width:0.7"
       id="path2602"
       cx="114.65934"
       cy="107.13299"
       r="17.516472" />
    <circle
       style="fill:#ffffff;stroke:#000000;stroke-width:0.700001"
       id="circle2604"
       cx="114.65934"
       cy="107.13299"
       r="2.9057307" />
    <g
       transform="matrix(0,-1,1.0956162,0,-70.424154,177.23964)"
       id="g6265"
       style="stroke-width:0.955368">
      <path
         inkscape:export-ydpi="96"
         inkscape:export-xdpi="96"
         style="fill:#cccccc;fill-opacity:1;stroke:#000000;stroke-width:0.565556;stroke-miterlimit:4;stroke-dasharray:none"
         d="m 84.559426,162.90993 a 1.2824262,0.80917558 0 0 0 -1.28234,-0.80928 1.2824262,0.80917558 0 0 0 -1.28289,0.80928 1.2824262,0.80917558 0 0 0 0.0496,0.22126 v 5.72229 a 1.2824262,0.80917558 0 0 0 -0.0496,0.21913 1.2824262,0.80917558 0 0 0 1.28289,0.80928 1.2824262,0.80917558 0 0 0 1.28234,-0.80928 1.2824262,0.80917558 0 0 0 -0.0205,-0.14231 h 0.0205 z"
         id="path1619"
         inkscape:connector-curvature="0" />
      <path
         inkscape:export-ydpi="96"
         inkscape:export-xdpi="96"
         style="fill:#cccccc;stroke:#000000;stroke-width:0.668758;stroke-linecap:butt;stroke-linejoin:miter;stroke-miterlimit:4;stroke-dasharray:none;stroke-opacity:1"
         d="m 82.920936,123.439 c 5.5486,0.77136 9.85293,2.19095 15.00276,4.31568 0.65086,-0.53764 1.21248,-0.40761 0.77069,-1.17701 -4.49535,-2.44153 -9.24121,-4.00901 -15.10552,-5.05676 -0.80901,0.28401 -0.80635,1.05991 -0.66793,1.91809 z"
         id="path1606"
         inkscape:connector-curvature="0"
         sodipodi:nodetypes="ccccc" />
      <path
         sodipodi:nodetypes="ccccc"
         inkscape:connector-curvature="0"
         id="path823"
         d="m 82.920936,153.63755 c 5.5486,0.77137 9.85293,2.19095 15.00276,4.31566 0.65086,-0.53763 1.21248,-0.4076 0.77069,-1.177 -4.49535,-2.44152 -9.24121,-4.00898 -15.10552,-5.05673 -0.80901,0.284 -0.80635,1.05991 -0.66793,1.91807 z"
         style="fill:#cccccc;stroke:#000000;stroke-width:0.668758;stroke-linecap:butt;stroke-linejoin:miter;stroke-miterlimit:4;stroke-dasharray:none;stroke-opacity:1" />
      <path
         style="fill:#cccccc;stroke:#000000;stroke-width:0.668758;stroke-linecap:butt;stroke-linejoin:miter;stroke-miterlimit:4;stroke-dasharray:none;stroke-opacity:1"
         d="m 82.920936,143.42534 c 5.5486,0.77136 9.85293,2.19095 15.00276,4.31566 0.65086,-0.53763 1.21248,-0.40761 0.77069,-1.177 -4.49535,-2.44152 -9.24121,-4.00898 -15.10552,-5.05673 -0.80901,0.284 -0.80635,1.0599 -0.66793,1.91807 z"
         id="path827"
         inkscape:connector-curvature="0"
         sodipodi:nodetypes="ccccc" />
      <path
         sodipodi:nodetypes="ccccc"
         inkscape:connector-curvature="0"
         id="path817-3"
         d="m 99.904276,147.88545 c -6.2408,0.96562 -11.54903,3.16623 -16.29035,6.09769 -1.02218,-0.27267 -1.91202,-0.62956 -1.3176,-1.93093 5.17397,-2.63742 10.63984,-4.85028 16.76948,-6.0977 0.53977,0.35972 1.219214,0.56708 0.83847,1.93094 z"
         style="fill:#ffffff;stroke:#000000;stroke-width:0.668758;stroke-linecap:butt;stroke-linejoin:miter;stroke-miterlimit:4;stroke-dasharray:none;stroke-opacity:1" />
      <path
         style="fill:#ffffff;stroke:#000000;stroke-width:0.668758;stroke-linecap:butt;stroke-linejoin:miter;stroke-miterlimit:4;stroke-dasharray:none;stroke-opacity:1"
         d="m 99.904276,158.34674 c -6.2408,0.96562 -11.54903,3.16623 -16.29035,6.09769 -1.02218,-0.27268 -1.91202,-0.62956 -1.3176,-1.93094 5.17397,-2.63741 10.63984,-4.85027 16.76948,-6.09769 0.53977,0.35972 1.219214,0.56708 0.83847,1.93094 z"
         id="path825"
         inkscape:connector-curvature="0"
         sodipodi:nodetypes="ccccc" />
      <path
         sodipodi:nodetypes="ccccc"
         inkscape:connector-curvature="0"
         id="path839-6"
         d="m 82.920936,132.964 c 5.5486,0.77137 9.85293,2.19096 15.00276,4.31568 0.65086,-0.53763 1.21248,-0.40761 0.77069,-1.177 -4.49535,-2.44154 -9.24121,-4.00901 -15.10552,-5.05676 -0.80901,0.284 -0.80635,1.05991 -0.66793,1.91808 z"
         style="fill:#cccccc;stroke:#000000;stroke-width:0.668758;stroke-linecap:butt;stroke-linejoin:miter;stroke-miterlimit:4;stroke-dasharray:none;stroke-opacity:1" />
      <path
         style="fill:#ffffff;stroke:#000000;stroke-width:0.668758;stroke-linecap:butt;stroke-linejoin:miter;stroke-miterlimit:4;stroke-dasharray:none;stroke-opacity:1"
         d="m 99.904276,137.67321 c -6.2408,0.96563 -11.54903,3.16625 -16.29035,6.09772 -1.02218,-0.27268 -1.91202,-0.62957 -1.3176,-1.93094 5.17397,-2.63743 10.63984,-4.8503 16.76948,-6.09773 0.53977,0.35973 1.219214,0.56708 0.83847,1.93095 z"
         id="path829"
         inkscape:connector-curvature="0"
         sodipodi:nodetypes="ccccc" />
      <path
         sodipodi:nodetypes="ccccc"
         inkscape:connector-curvature="0"
         id="path833"
         d="m 99.904276,127.46094 c -6.2408,0.96563 -11.54903,3.16625 -16.29035,6.09773 -1.02218,-0.27268 -1.91202,-0.62957 -1.3176,-1.93095 5.17397,-2.63743 10.63984,-4.8503 16.76948,-6.09773 0.53977,0.35973 1.219214,0.56708 0.83847,1.93095 z"
         style="fill:#ffffff;stroke:#000000;stroke-width:0.668758;stroke-linecap:butt;stroke-linejoin:miter;stroke-miterlimit:4;stroke-dasharray:none;stroke-opacity:1" />
      <path
         inkscape:connector-curvature="0"
         id="path1610"
         d="m 84.691716,116.79684 a 1.2824262,0.80917558 0 0 0 -1.28234,-0.80928 1.2824262,0.80917558 0 0 0 -1.28289,0.80928 1.2824262,0.80917558 0 0 0 0.0496,0.22126 v 5.72229 a 1.2824262,0.80917558 0 0 0 -0.0496,0.21913 1.2824262,0.80917558 0 0 0 1.28289,0.80928 1.2824262,0.80917558 0 0 0 1.28234,-0.80928 1.2824262,0.80917558 0 0 0 -0.0205,-0.14231 h 0.0205 z"
         style="fill:#ffffff;stroke:#000000;stroke-width:0.565556;stroke-miterlimit:4;stroke-dasharray:none" />
    </g>
    <g
       id="layer1-9"
       inkscape:label="Layer 1"
       transform="matrix(1.4029645,0,0,1,-51.089539,-2.1578544)"
       style="stroke-width:0.844261">
      <rect
         style="fill:#ffffff;stroke:#000000;stroke-width:0.590983;stroke-miterlimit:4;stroke-dasharray:none"
         id="rect1718"
         width="16.510056"
         height="2.1250565"
         x="101.72212"
         y="108.30544" />
      <rect
         style="fill:#ffffff;stroke:#000000;stroke-width:0.684566;stroke-miterlimit:4;stroke-dasharray:none"
         id="rect1731"
         width="15.094382"
         height="2.0999031"
         x="76.874931"
         y="108.44493" />
      <rect
         y="104.7997"
         x="92.554405"
         height="9.2270832"
         width="7.2063184"
         id="rect3464"
         style="fill:#808080;stroke:#808080;stroke-width:0.590983" />
      <path
         style="fill:#ffffff;stroke:#000000;stroke-width:0.590983;stroke-miterlimit:4;stroke-dasharray:none"
         d="m 88.29373,103.05019 v 2.14922 h 11.466999 v 8.82737 H 88.29373 v 2.14922 h 13.28911 v -13.12581 z"
         id="rect1720"
         inkscape:connector-curvature="0" />
      <rect
         style="fill:#ffffff;stroke:#000000;stroke-width:0.694458;stroke-miterlimit:4;stroke-dasharray:none"
         id="rect1729"
         width="2.6107433"
         height="7.8277359"
         x="91.626671"
         y="105.74422" />
    </g>
    <path
       id="rect2606"
       style="fill:#b3b3b3;stroke:#000000;stroke-width:2.64567"
       d="m 197.66797,290.22656 v 181.94727 17.6289 h 17.65625 345.05664 v -17.6289 H 215.32422 V 290.22656 Z"
       transform="scale(0.26458333)" />
    <path
       style="fill:none;stroke:#000000;stroke-width:0.264583px;stroke-linecap:butt;stroke-linejoin:miter;stroke-opacity:1"
       d="m 114.65862,107.18299 h 30.69274"
       id="path2798" />
    <path
       style="fill:none;stroke:#000000;stroke-width:0.264583px;stroke-linecap:butt;stroke-linejoin:miter;stroke-opacity:1"
       d="m 114.81567,93.835764 h 30.23592"
       id="path2800" />
    <path
       style="fill:none;stroke:#000000;stroke-width:0.265;stroke-linecap:butt;stroke-linejoin:miter;stroke-miterlimit:4;stroke-dasharray:none;stroke-opacity:1;marker-start:url(#Arrow1Lstart);marker-end:url(#marker3216)"
       d="M 141.60815,93.826353 V 107.29433"
       id="path2804" />
    <path
       style="fill:none;stroke:#000000;stroke-width:0.264583px;stroke-linecap:butt;stroke-linejoin:miter;stroke-opacity:1;marker-end:url(#marker3226)"
       d="m 114.80919,107.2459 10.5854,13.87442"
       id="path3108" />
    <path
       style="fill:#b3b3b3;stroke:#000000;stroke-width:0.264999;stroke-miterlimit:4;stroke-dasharray:none"
       id="path3146"
       d="m 143.88242,98.712032 c 0.0348,0.391999 0.0981,0.780809 0.15456,1.170112 0.054,0.373336 0.10959,0.746476 0.14147,1.122456 0.0256,0.3075 -0.0149,0.61386 -0.0409,0.91972 -0.0109,0.27896 -0.0522,0.5544 -0.0953,0.8297 -0.0341,0.20221 -0.0678,0.40444 -0.10625,0.60588 -0.0163,0.0864 -0.0381,0.17175 -0.0648,0.25551 -0.0272,0.0806 -0.028,0.0734 0.12613,0.20192 0.0125,0.0104 0.27533,0.0179 0.28995,0.0185 0.20396,0.008 0.33414,0.0117 0.54331,0.0187 0.75866,0.0261 1.51777,0.0376 2.27677,0.0226 0.22316,-0.002 0.45349,-0.0211 0.67344,-0.0236 0.19768,0.0332 0.24464,-0.24636 0.047,-0.27957 v 0 c -0.23971,-0.0274 -0.48526,0.0366 -0.72599,0.0198 -0.754,0.0149 -1.50811,0.003 -2.26178,-0.0226 -0.23957,-0.008 -0.31295,-0.0101 -0.54147,-0.0186 -0.0556,-0.002 -0.11116,-0.004 -0.16674,-0.007 -0.0193,-8e-4 -0.0584,-0.0209 -0.0579,-0.002 0.009,0.34223 0.0479,0.21541 0.0675,0.15677 0.0299,-0.0945 0.0546,-0.1907 0.073,-0.28812 0.039,-0.20453 0.0733,-0.40986 0.10786,-0.61519 0.0441,-0.28188 0.0862,-0.56398 0.0977,-0.84957 0.0273,-0.32182 0.0688,-0.64419 0.0409,-0.9677 -0.0325,-0.38154 -0.0883,-0.76026 -0.14337,-1.139109 -0.0557,-0.3839 -0.11817,-0.767311 -0.15269,-1.153851 -0.0172,-0.199707 -0.29969,-0.175297 -0.28243,0.02442 z" />
    <path
       style="fill:#b3b3b3;stroke:#000000;stroke-width:0.264999;stroke-miterlimit:4;stroke-dasharray:none"
       id="path3148"
       d="m 116.8113,91.565446 c 0.0207,-0.508217 0.0266,-1.016889 0.0315,-1.525458 0.003,-0.513755 0.0135,-1.027499 -0.0118,-1.540804 -0.0225,-0.4119 -0.0976,-0.817763 -0.18194,-1.220713 -0.0138,-0.07749 -0.0322,-0.152466 -0.0625,-0.224854 -0.0848,-0.181644 -0.34166,-0.06176 -0.25688,0.119888 v 0 c 0.0163,0.05056 0.0358,0.109538 0.042,0.163058 0.0814,0.388427 0.1543,0.779584 0.17626,1.176649 0.0253,0.507704 0.0138,1.015889 0.0115,1.52404 -0.005,0.504695 -0.0107,1.009489 -0.0312,1.513837 -0.0102,0.200195 0.27296,0.214554 0.28312,0.01437 z" />
    <path
       style="fill:#b3b3b3;stroke:#000000;stroke-width:0.264999;stroke-miterlimit:4;stroke-dasharray:none"
       id="path3150"
       d="m 114.25677,85.243653 c 0.61334,-0.06999 1.22744,-0.154488 1.84577,-0.162531 0.17414,-0.0024 0.34826,0.0062 0.52239,0.0093 0.74354,0.06253 1.4631,0.275781 2.02877,0.77991 0.0798,0.07107 0.14897,0.153149 0.22345,0.229725 0.0805,0.119806 0.19403,0.240585 0.19559,0.398369 0.003,0.302104 -0.49092,0.614802 -0.68912,0.759773 -0.69037,0.44251 -1.47909,0.682008 -2.269,0.874871 -0.26975,0.07296 -0.55006,0.09381 -0.82152,0.156758 -0.19506,0.04615 -0.1298,0.322016 0.0653,0.275867 v 0 c 0.27129,-0.06581 0.55414,-0.0803 0.82356,-0.157252 0.82617,-0.20216 1.65,-0.455269 2.36984,-0.92202 0.28206,-0.209193 0.62686,-0.425275 0.75074,-0.778023 0.11208,-0.319191 -0.0318,-0.562436 -0.22293,-0.806797 -0.0839,-0.08496 -0.16199,-0.175998 -0.25161,-0.254865 -0.61505,-0.541242 -1.39335,-0.774494 -2.19814,-0.839756 -0.18,-0.003 -0.35999,-0.01154 -0.54,-0.0091 -0.62508,0.0085 -1.24592,0.0932 -1.86596,0.164161 -0.1991,0.02326 -0.1662,0.304832 0.0329,0.281567 z" />
    <path
       style="fill:#b3b3b3;stroke:#000000;stroke-width:0.264999;stroke-miterlimit:4;stroke-dasharray:none"
       id="path3152"
       d="m 121.31969,114.30272 c 0.52198,-0.29986 0.68093,-0.64179 0.72467,-1.22612 0.0194,-0.10239 -0.0649,-0.34596 0.0481,-0.4298 0.091,-0.0675 0.45631,-0.0565 0.54771,-0.0563 0.25696,0.0489 0.67327,0.0678 0.78451,0.36621 0.016,0.043 0.0216,0.28442 0.0224,0.30163 0.0413,0.40528 0.33215,0.60119 0.62514,0.84074 0.15636,0.12544 0.33375,-0.0957 0.1774,-0.22111 v 0 c -0.1396,-0.10952 -0.37671,-0.26128 -0.47102,-0.43641 -0.0323,-0.0599 -0.0323,-0.13218 -0.0484,-0.19827 -0.009,-0.15228 -0.004,-0.31114 -0.0759,-0.45296 -0.18878,-0.37076 -0.6522,-0.43214 -1.01602,-0.48331 -0.2818,0.004 -0.60077,-0.0174 -0.80492,0.22494 -0.11817,0.14029 -0.069,0.36286 -0.0718,0.52538 -0.0276,0.46358 -0.14523,0.74981 -0.56337,0.98922 -0.1811,0.0859 -0.0596,0.34205 0.12153,0.25611 z" />
    <path
       style="fill:#b3b3b3;stroke:#000000;stroke-width:0.264999;stroke-miterlimit:4;stroke-dasharray:none"
       id="path3158"
       d="m 114.66418,118.46559 c -0.39943,0.007 -0.79003,0.093 -1.17492,0.19288 -0.49133,0.1348 -0.92137,0.3981 -1.29004,0.74445 -0.24396,0.27281 -0.39253,0.5493 -0.36052,0.91958 0.0858,0.3465 0.39758,0.55553 0.68508,0.73142 0.48705,0.25789 1.02614,0.37252 1.56612,0.45439 0.35149,0.0617 0.6996,0.0573 1.04563,-0.0255 0.0703,-0.0204 0.13897,-0.0443 0.21211,-0.0502 0.19916,-0.0227 0.16706,-0.30435 -0.0321,-0.28166 v 0 c -0.0843,0.011 -0.16601,0.0282 -0.24661,0.0563 -0.31008,0.0758 -0.6215,0.0761 -0.93669,0.0207 -0.50303,-0.0757 -1.00577,-0.18014 -1.46133,-0.4164 -0.21038,-0.12664 -0.46124,-0.27779 -0.55032,-0.51907 -0.0369,-0.26419 0.10534,-0.48999 0.27352,-0.68375 0.33112,-0.31627 0.72301,-0.55217 1.16649,-0.67596 0.36462,-0.095 0.73465,-0.17734 1.1132,-0.18392 0.20033,-0.007 0.19072,-0.29012 -0.01,-0.28332 z" />
    <path
       style="fill:#b3b3b3;stroke:#000000;stroke-width:0.264999;stroke-miterlimit:4;stroke-dasharray:none"
       id="path3162"
       d="m 111.4115,99.33022 c -0.32274,0.266883 -0.64519,0.534173 -0.96689,0.80234 -0.34113,0.2721 -0.59454,0.60943 -0.76274,1.00954 -0.14932,0.37544 -0.11031,0.74712 0.0103,1.12198 0.16973,0.42755 0.5223,0.71003 0.90254,0.94401 0.4585,0.23807 0.96304,0.35607 1.47223,0.4196 0.53415,0.0582 1.04057,-0.0685 1.52668,-0.27838 0.45856,-0.22064 0.77699,-0.59513 1.02011,-1.03115 0.17263,-0.35404 0.23703,-0.73881 0.20957,-1.12912 -0.0619,-0.41557 -0.35079,-0.67934 -0.67466,-0.9122 -0.41718,-0.2703 -0.87334,-0.467343 -1.34077,-0.63149 -0.56953,-0.184743 -1.16123,-0.262208 -1.75792,-0.242795 -0.41636,0.07574 -0.21341,0.0093 -0.60664,0.206023 -0.17758,0.093 -0.0461,0.344125 0.13151,0.251132 v 0 c 0.29942,-0.166309 0.13834,-0.106807 0.48495,-0.173845 0.56137,-0.02074 1.11819,0.05531 1.65434,0.227015 0.44238,0.15469 0.8739,0.34084 1.26968,0.59458 0.25456,0.18073 0.49936,0.37813 0.55687,0.7033 0.0284,0.33423 -0.0319,0.6657 -0.17494,0.97008 -0.21002,0.38237 -0.48552,0.71288 -0.88501,0.90845 -0.4387,0.19166 -0.89582,0.3085 -1.37906,0.25705 -0.46932,-0.0572 -0.9345,-0.16537 -1.35901,-0.38007 -0.32295,-0.19626 -0.63086,-0.43087 -0.781,-0.79021 -0.10283,-0.3093 -0.14069,-0.61349 -0.0179,-0.92532 0.1468,-0.35945 0.37846,-0.65692 0.68243,-0.90044 0.32045,-0.26714 0.64169,-0.533376 0.96316,-0.79928 0.15613,-0.125714 -0.0217,-0.346516 -0.17779,-0.2208 z" />
    <path
       style="fill:#b3b3b3;stroke:#000000;stroke-width:0.264999;stroke-miterlimit:4;stroke-dasharray:none"
       id="path3164"
       d="m 84.156991,75.616299 c 0.07646,-0.532109 0.126021,-1.068038 0.168635,-1.603819 0.04774,-0.657143 0.05282,-1.316255 0.07033,-1.974623 0.01879,-0.637431 0.03237,-1.274895 0.01143,-1.912376 -0.0072,-0.184859 -0.01775,-0.369547 -0.03128,-0.554038 -0.01468,-0.199914 -0.297402,-0.179152 -0.28272,0.02077 v 0 c 0.01328,0.180687 0.0236,0.361572 0.03067,0.542618 0.02093,0.631854 0.007,1.263695 -0.01148,1.895499 -0.01738,0.653388 -0.02238,1.307515 -0.06954,1.9597 -0.04193,0.528037 -0.09081,1.056214 -0.165832,1.580671 -0.03225,0.197842 0.247541,0.243448 0.279788,0.04561 z" />
    <path
       style="fill:#b3b3b3;stroke:#000000;stroke-width:0.264999;stroke-miterlimit:4;stroke-dasharray:none"
       id="path3170"
       d="m 84.602552,72.745684 c 0.497276,0.315092 1.01932,0.588819 1.53552,0.871164 0.507838,0.280853 1.024636,0.544931 1.529437,0.831236 0.368265,0.218729 0.721463,0.461529 1.077039,0.700006 0.06627,0.05041 0.140346,0.08937 0.208037,0.137676 0.04224,0.03015 0.06048,0.07527 -0.01913,-0.05131 0.01315,0.20002 0.296027,0.181415 0.282872,-0.0186 v 0 c -0.0172,-0.04026 -0.02781,-0.08403 -0.05162,-0.120769 -0.05635,-0.08696 -0.198742,-0.104526 -0.262271,-0.182422 -0.361453,-0.242414 -0.720516,-0.489194 -1.0951,-0.711163 -0.506098,-0.286959 -1.024062,-0.551921 -1.533239,-0.833353 -0.507828,-0.277767 -1.021311,-0.547148 -1.51111,-0.856162 -0.165256,-0.113454 -0.325702,0.120255 -0.160446,0.233706 z" />
    <path
       style="fill:#b3b3b3;stroke:#000000;stroke-width:0.264999;stroke-miterlimit:4;stroke-dasharray:none"
       id="path3172"
       d="m 86.586607,73.459794 c 0.506846,-0.396372 1.007419,-0.800391 1.503198,-1.210503 0.560708,-0.474906 1.12649,-0.944007 1.680072,-1.427242 0.176885,-0.155739 0.353166,-0.312155 0.529016,-0.469061 0.07547,-0.06734 0.153099,-0.126939 0.211842,-0.209241 0.09494,-0.176543 -0.154737,-0.310806 -0.249672,-0.13426 v 0 c 0.09045,-0.09397 -0.132879,0.115893 -0.150757,0.131845 -0.102386,0.09136 -0.211989,0.188878 -0.314124,0.279283 -0.07084,0.06271 -0.141822,0.125252 -0.212733,0.187878 -0.551666,0.481616 -1.115581,0.94904 -1.674336,1.422366 -0.494411,0.409001 -0.993635,0.811882 -1.499092,1.207172 -0.156811,0.124865 0.01976,0.346628 0.176586,0.221763 z" />
    <path
       style="fill:#b3b3b3;stroke:#000000;stroke-width:0.264999;stroke-miterlimit:4;stroke-dasharray:none"
       id="path3176"
       d="m 84.863439,116.35265 c -0.548876,-0.0487 -1.090319,0.006 -1.625447,0.12749 -0.627104,0.16521 -1.170813,0.50212 -1.673016,0.90147 -0.28449,0.24847 -0.585819,0.52014 -0.708583,0.89041 -0.01998,0.0603 -0.02873,0.12371 -0.0431,0.18556 -0.04469,0.44166 0.156485,0.72657 0.457139,1.02284 0.36077,0.32396 0.79791,0.51793 1.248278,0.6805 0.498795,0.16827 1.019156,0.25103 1.541759,0.29755 0.53109,0.0303 1.062101,-0.0219 1.586277,-0.10408 0.127953,-0.0224 0.256305,-0.0444 0.381926,-0.0779 0.193599,-0.052 0.120103,-0.32576 -0.0735,-0.27379 v 0 c -0.115773,0.0314 -0.234539,0.0503 -0.352417,0.0717 -0.501359,0.0789 -1.009239,0.12953 -1.517292,0.10175 -0.498404,-0.0439 -0.994717,-0.12237 -1.470666,-0.28187 -0.412451,-0.14832 -0.814218,-0.32245 -1.146524,-0.61683 -0.218186,-0.20979 -0.404543,-0.43818 -0.378066,-0.75916 0.07851,-0.39065 0.352118,-0.66699 0.651412,-0.91491 0.468096,-0.37373 0.974405,-0.6903 1.559275,-0.84677 0.508743,-0.11649 1.023596,-0.16736 1.545629,-0.12092 0.200094,0.012 0.217004,-0.27102 0.01691,-0.28298 z" />
  </g>
</svg>
