<?xml version="1.0" encoding="UTF-8" standalone="no"?>
<svg
   xmlns:dc="http://purl.org/dc/elements/1.1/"
   xmlns:cc="http://creativecommons.org/ns#"
   xmlns:rdf="http://www.w3.org/1999/02/22-rdf-syntax-ns#"
   xmlns:svg="http://www.w3.org/2000/svg"
   xmlns="http://www.w3.org/2000/svg"
   xmlns:sodipodi="http://sodipodi.sourceforge.net/DTD/sodipodi-0.dtd"
   xmlns:inkscape="http://www.inkscape.org/namespaces/inkscape"
   width="113.24919mm"
   height="102.56172mm"
   viewBox="0 0 113.24919 102.56172"
   version="1.1"
   id="svg942"
   inkscape:version="1.0.1 (0767f8302a, 2020-10-17)"
   sodipodi:docname="ex01.svg">
  <defs
     id="defs936">
    <marker
       style="overflow:visible"
       id="marker3114"
       refX="0"
       refY="0"
       orient="auto"
       inkscape:stockid="Arrow1Lend"
       inkscape:isstock="true">
      <path
         transform="matrix(-0.8,0,0,-0.8,-10,0)"
         style="fill:#000000;fill-opacity:1;fill-rule:evenodd;stroke:#000000;stroke-width:1pt;stroke-opacity:1"
         d="M 0,0 5,-5 -12.5,0 5,5 Z"
         id="path3112" />
    </marker>
    <marker
       style="overflow:visible"
       id="marker3050"
       refX="0"
       refY="0"
       orient="auto"
       inkscape:stockid="Arrow1Lstart"
       inkscape:isstock="true">
      <path
         transform="matrix(0.8,0,0,0.8,10,0)"
         style="fill:#000000;fill-opacity:1;fill-rule:evenodd;stroke:#000000;stroke-width:1pt;stroke-opacity:1"
         d="M 0,0 5,-5 -12.5,0 5,5 Z"
         id="path3048" />
    </marker>
    <marker
       style="overflow:visible"
       id="marker2801"
       refX="0"
       refY="0"
       orient="auto"
       inkscape:stockid="Arrow1Lend"
       inkscape:isstock="true">
      <path
         transform="matrix(-0.8,0,0,-0.8,-10,0)"
         style="fill:#0000ff;fill-opacity:1;fill-rule:evenodd;stroke:#0000ff;stroke-width:1pt;stroke-opacity:1"
         d="M 0,0 5,-5 -12.5,0 5,5 Z"
         id="path2799" />
    </marker>
    <marker
       style="overflow:visible"
       id="marker2791"
       refX="0"
       refY="0"
       orient="auto"
       inkscape:stockid="Arrow1Lstart"
       inkscape:isstock="true">
      <path
         transform="matrix(0.8,0,0,0.8,10,0)"
         style="fill:#0000ff;fill-opacity:1;fill-rule:evenodd;stroke:#0000ff;stroke-width:1pt;stroke-opacity:1"
         d="M 0,0 5,-5 -12.5,0 5,5 Z"
         id="path2789" />
    </marker>
    <marker
       style="overflow:visible"
       id="Arrow1Lend"
       refX="0"
       refY="0"
       orient="auto"
       inkscape:stockid="Arrow1Lend"
       inkscape:isstock="true"
       inkscape:collect="always">
      <path
         transform="matrix(-0.8,0,0,-0.8,-10,0)"
         style="fill:#000000;fill-opacity:1;fill-rule:evenodd;stroke:#000000;stroke-width:1pt;stroke-opacity:1"
         d="M 0,0 5,-5 -12.5,0 5,5 Z"
         id="path1512" />
    </marker>
    <marker
       style="overflow:visible"
       id="marker1787"
       refX="0"
       refY="0"
       orient="auto"
       inkscape:stockid="Arrow1Lstart"
       inkscape:isstock="true"
       inkscape:collect="always">
      <path
         transform="matrix(0.8,0,0,0.8,10,0)"
         style="fill:#000000;fill-opacity:1;fill-rule:evenodd;stroke:#000000;stroke-width:1pt;stroke-opacity:1"
         d="M 0,0 5,-5 -12.5,0 5,5 Z"
         id="path1785" />
    </marker>
    <marker
       style="overflow:visible"
       id="Arrow1Lstart"
       refX="0"
       refY="0"
       orient="auto"
       inkscape:stockid="Arrow1Lstart"
       inkscape:isstock="true">
      <path
         transform="matrix(0.8,0,0,0.8,10,0)"
         style="fill:#000000;fill-opacity:1;fill-rule:evenodd;stroke:#000000;stroke-width:1pt;stroke-opacity:1"
         d="M 0,0 5,-5 -12.5,0 5,5 Z"
         id="path1509" />
    </marker>
    <marker
       style="overflow:visible"
       id="marker2416"
       refX="0"
       refY="0"
       orient="auto"
       inkscape:stockid="Arrow1Lend"
       inkscape:isstock="true">
      <path
         transform="matrix(-0.8,0,0,-0.8,-10,0)"
         style="fill:#ff0000;fill-opacity:1;fill-rule:evenodd;stroke:#ff0000;stroke-width:1pt;stroke-opacity:1"
         d="M 0,0 5,-5 -12.5,0 5,5 Z"
         id="path2414" />
    </marker>
    <filter
       inkscape:collect="always"
       style="color-interpolation-filters:sRGB"
       id="filter2408"
       x="-0.18425412"
       width="1.3685082"
       y="-0.18425412"
       height="1.3685082">
      <feGaussianBlur
         inkscape:collect="always"
         stdDeviation="0.52308203"
         id="feGaussianBlur2410" />
    </filter>
  </defs>
  <sodipodi:namedview
     id="base"
     pagecolor="#ffffff"
     bordercolor="#666666"
     borderopacity="1.0"
     inkscape:pageopacity="0.0"
     inkscape:pageshadow="2"
     inkscape:zoom="1.7443033"
     inkscape:cx="284.3669"
     inkscape:cy="200.334"
     inkscape:document-units="mm"
     inkscape:current-layer="layer1"
     inkscape:document-rotation="0"
     showgrid="false"
     inkscape:object-nodes="false"
     inkscape:snap-others="true"
     inkscape:snap-nodes="true"
     showborder="false"
     inkscape:window-width="1920"
     inkscape:window-height="1016"
     inkscape:window-x="0"
     inkscape:window-y="27"
     inkscape:window-maximized="1" />
  <metadata
     id="metadata939">
    <rdf:RDF>
      <cc:Work
         rdf:about="">
        <dc:format>image/svg+xml</dc:format>
        <dc:type
           rdf:resource="http://purl.org/dc/dcmitype/StillImage" />
        <dc:title></dc:title>
      </cc:Work>
    </rdf:RDF>
  </metadata>
  <g
     inkscape:label="Layer 1"
     inkscape:groupmode="layer"
     id="layer1"
     transform="translate(-18.823362,-73.657972)">
    <path
       style="fill:none;stroke:#000000;stroke-width:0.264583px;stroke-linecap:butt;stroke-linejoin:miter;stroke-opacity:1"
       d="M 55.401961,73.657972 V 144.66003 H 132.07255"
       id="path1505"
       sodipodi:nodetypes="ccc" />
    <path
       style="fill:none;stroke:#000000;stroke-width:0.5;stroke-linecap:butt;stroke-linejoin:miter;stroke-miterlimit:4;stroke-dasharray:none;stroke-opacity:1;marker-start:url(#marker1787);marker-end:url(#Arrow1Lend)"
       d="m 55.155015,108.37294 v 36.51785 h 39.02108"
       id="path1507"
       sodipodi:nodetypes="ccc" />
    <path
       style="fill:none;stroke:#0000ff;stroke-width:0.264583px;stroke-linecap:butt;stroke-linejoin:miter;stroke-opacity:1"
       d="m 18.936813,83.566071 36.51973,60.890079 65.751307,-39.43532"
       id="path2785"
       sodipodi:nodetypes="ccc"
       inkscape:transform-center-x="-15.011241"
       inkscape:transform-center-y="-30.448417" />
    <path
       style="fill:none;stroke:#ff0000;stroke-width:0.5;stroke-linecap:butt;stroke-linejoin:miter;stroke-miterlimit:4;stroke-dasharray:none;stroke-opacity:1;marker-end:url(#marker2416)"
       d="M 55.419984,144.34162 108.14515,112.94341"
       id="path3016"
       sodipodi:nodetypes="cc" />
    <path
       style="fill:none;stroke:#0000ff;stroke-width:0.5;stroke-linecap:butt;stroke-linejoin:miter;stroke-miterlimit:4;stroke-dasharray:none;stroke-opacity:1;marker-start:url(#marker2791);marker-end:url(#marker2801)"
       d="m 36.580593,113.46401 18.782864,31.31705 33.463771,-20.07039"
       id="path2787"
       sodipodi:nodetypes="ccc"
       inkscape:transform-center-x="-7.6428196"
       inkscape:transform-center-y="-15.336993" />
    <g
       id="g916"
       transform="matrix(0.58800293,0,0,0.58800293,31.881342,44.205658)">
      <circle
         style="opacity:1;mix-blend-mode:normal;fill:#000000;stroke:#000000;stroke-width:0.170779"
         id="path1649"
         cx="135.97427"
         cy="113.54485"
         r="7.4015002" />
      <circle
         style="opacity:1;fill:#ffffff;stroke:#000000;stroke-width:0.118401;filter:url(#filter2408)"
         id="path1651"
         cx="138.57416"
         cy="110.38313"
         r="3.4066997" />
    </g>
    <path
       style="fill:none;stroke:#000000;stroke-width:0.264583px;stroke-linecap:butt;stroke-linejoin:miter;stroke-opacity:1"
       d="M 54.993608,144.40523 73.32351,176.15355"
       id="path3042" />
    <path
       style="fill:none;stroke:#000000;stroke-width:0.264583px;stroke-linecap:butt;stroke-linejoin:miter;stroke-opacity:1"
       d="m 112.43186,111.1621 18.3299,31.74832"
       id="path3044" />
    <path
       style="fill:none;stroke:#000000;stroke-width:0.264583px;stroke-linecap:butt;stroke-linejoin:miter;stroke-opacity:1;marker-start:url(#marker3050);marker-end:url(#marker3114)"
       d="m 70.569758,171.40665 57.414362,-33.1482"
       id="path3046" />
    <path
       style="fill:#ffffff;stroke-width:0.264583"
       id="path210"
       d="m 111.30685,102.12383 c -0.0454,-0.65256 -0.0803,-1.30546 -0.14193,-1.9568 -0.042,-0.494209 -0.10649,-0.985573 -0.17206,-1.477023 -0.0518,-0.306559 -0.0314,-0.615248 -0.0295,-0.923903 0.006,-0.462849 -0.0974,-0.228391 -0.67541,0.04039 0,0 -0.0406,0.02065 -0.0406,0.02065 v 0 c -0.50879,0.282328 -0.69966,0.203256 -0.66685,0.649636 0.023,0.299958 0.0941,0.592323 0.12465,0.891846 0.07,0.486332 0.14041,0.972664 0.18844,1.461804 0.0651,0.65096 0.11256,1.30401 0.12367,1.95834 0,0 1.28957,-0.66493 1.28957,-0.66493 z" />
    <path
       style="fill:#000000;stroke-width:0.264583"
       id="path216"
       d="m 110.96896,103.44631 c 0.0911,-0.74739 0.19638,-1.49279 0.27953,-2.24119 0.0652,-0.636 0.11412,-1.273501 0.17337,-1.910047 0.0107,-0.120602 0.0262,-0.243558 0.0482,-0.361399 0.13868,-0.518044 -0.59395,-0.714166 -0.73263,-0.196122 v 0 c -0.0381,0.160225 -0.0547,0.323374 -0.0707,0.487269 -0.0588,0.632066 -0.10754,1.265059 -0.172,1.896599 -0.0835,0.75214 -0.19004,1.50117 -0.28069,2.2524 -0.0513,0.53383 0.70369,0.60632 0.75495,0.0725 z" />
    <path
       style="fill:#000000;stroke-width:0.264583"
       id="path218"
       d="m 109.56084,97.412057 c 0.83344,-0.202306 1.68783,-0.287621 2.54379,-0.26019 0.72166,0.06249 1.36083,0.346036 1.90567,0.814416 0.32719,0.334643 0.51874,0.747939 0.52934,1.214968 -0.0284,0.401228 -0.28605,0.677668 -0.58399,0.917379 -0.39874,0.27145 -0.86096,0.4174 -1.32248,0.54104 -0.24871,0.0613 -0.50159,0.1057 -0.75676,0.12835 -0.0177,0.002 -0.0356,0.002 -0.0533,0.003 -0.53627,0.004 -0.53072,0.76234 0.006,0.75841 v 0 c 0.0387,-5.3e-4 0.0774,-0.002 0.11593,-0.006 0.29873,-0.0273 0.59495,-0.0784 0.88595,-0.15141 0.5656,-0.15326 1.12844,-0.34032 1.60782,-0.68837 0.48033,-0.40346 0.84414,-0.88447 0.85883,-1.538465 -0.0428,-0.680765 -0.30029,-1.28036 -0.79842,-1.758998 -0.68576,-0.568395 -1.47278,-0.926873 -2.3716,-0.992346 -0.92651,-0.02568 -1.85126,0.06145 -2.75313,0.283215 -0.51977,0.132077 -0.33298,0.867138 0.18678,0.735061 z" />
    <path
       style="fill:#000000;stroke-width:0.264583"
       id="path220"
       d="m 47.135173,111.30585 c 0.417793,-0.59154 0.633449,-1.28163 0.78627,-1.98122 0.109196,-0.58116 0.107672,-1.17503 0.107839,-1.76414 -0.0011,-0.33682 -0.0058,-0.67361 -0.0094,-1.01041 -0.0019,-0.16439 -0.0021,-0.32879 -0.0021,-0.49319 -5.29e-4,-0.29097 0.01688,0.0184 -0.06502,0.0478 -0.518213,0.18634 -0.583427,-0.13078 -0.530235,0.0876 0.330224,0.64946 0.622586,1.31668 0.904666,1.98811 0.303501,0.73758 0.584123,1.48429 0.859877,2.2326 0.131667,0.33482 0.231984,0.68234 0.378579,1.0112 0.185701,0.36893 0.296294,0.4308 0.788609,0.14242 0.0584,-0.0342 0.05455,-0.12389 0.08183,-0.18583 0.129318,-0.5124 0.116189,-1.04929 0.125111,-1.57429 -0.0031,-0.68023 0.0061,-1.35905 0.08682,-2.03498 0.05627,-0.4087 0.191124,-0.79839 0.345532,-1.17882 0.07719,-0.15026 0.04825,-0.0751 -0.199234,0.13651 0.526447,-0.10226 0.381836,-0.84677 -0.14461,-0.74451 v 0 c -0.339008,0.23503 -0.251095,0.1001 -0.359093,0.32325 -0.179263,0.44329 -0.332322,0.89834 -0.395769,1.3745 -0.08222,0.70138 -0.09678,1.4054 -0.09196,2.11122 -0.0074,0.44131 -0.0013,0.88816 -0.07818,1.32417 0.08139,0.15249 -0.05633,-0.0946 0.459475,-0.0449 0.06935,0.007 0.17239,0.2223 0.0722,0.038 -0.144325,-0.30939 -0.2261,-0.64563 -0.357677,-0.96026 -0.279683,-0.75892 -0.564351,-1.51619 -0.872318,-2.26416 -0.293664,-0.69866 -0.597779,-1.39327 -0.943848,-2.06791 -0.03633,-0.0576 -0.04324,-0.15505 -0.108993,-0.17293 -0.621019,-0.16889 -0.717756,-0.0475 -0.714184,0.41175 1.37e-4,0.16689 2.51e-4,0.33377 0.0021,0.50065 0.0035,0.33406 0.0082,0.66811 0.0093,1.00219 -6.1e-5,0.53524 0.0039,1.07503 -0.09064,1.60372 -0.127976,0.59651 -0.304823,1.18786 -0.657426,1.69437 -0.316375,0.43302 0.296008,0.88045 0.612384,0.44742 z" />
    <path
       style="fill:#000000;stroke-width:0.264583"
       id="path222"
       d="m 94.534506,155.32249 c -0.104166,-0.90767 -0.353121,-1.78307 -0.713965,-2.61977 -0.320577,-0.65215 -0.715131,-1.2733 -1.247685,-1.77171 -0.266284,-0.19317 -0.630187,-0.39715 -0.976976,-0.3086 -0.08036,0.0205 -0.153988,0.0616 -0.230981,0.0925 -0.426477,0.31623 -0.429041,0.78181 -0.305912,1.25361 0.174721,0.51532 0.539626,0.90384 0.952056,1.24112 0.517279,0.39377 1.133774,0.5493 1.763173,0.65185 0.600104,0.0737 1.203719,0.11441 1.807546,0.14153 0.09546,0.004 0.190976,0.007 0.286506,0.009 0.536149,0.012 0.553167,-0.7462 0.01701,-0.75823 v 0 c -0.08987,-0.002 -0.179732,-0.005 -0.269547,-0.009 -0.575162,-0.0257 -1.150062,-0.0644 -1.721884,-0.1328 -0.497944,-0.0777 -0.990802,-0.18813 -1.405285,-0.49213 -0.291798,-0.23375 -0.561927,-0.49848 -0.698873,-0.85505 -0.0155,-0.0502 -0.05226,-0.15751 -0.0599,-0.21737 -0.0053,-0.0418 0.0145,-0.11154 0.0051,-0.15241 -0.0013,-0.006 -0.0096,-0.007 -0.01437,-0.0108 -0.01349,-0.003 -0.03404,0.004 -0.04048,-0.009 -0.05048,-0.0957 0.468268,0.13132 0.378143,0.11189 0.461626,0.41911 0.784426,0.96663 1.066728,1.51676 0.333746,0.76266 0.556139,1.56398 0.654881,2.39224 0.05271,0.53369 0.807461,0.45914 0.754751,-0.0745 z" />
    <path
       style="fill:#000000;stroke-width:0.264583"
       id="path228"
       d="m 131.1432,150.2731 c 0.50456,0.69315 1.02552,1.37405 1.55321,2.04968 0.4499,0.56724 0.86751,1.15887 1.30567,1.73497 0.18937,0.27124 0.42845,0.50464 0.62843,0.76687 0.33243,0.42082 0.92756,-0.0493 0.59513,-0.47013 v 0 c -0.20394,-0.25392 -0.42682,-0.49305 -0.61997,-0.75596 -0.4403,-0.57851 -0.85936,-1.17306 -1.31155,-1.74259 -0.5203,-0.66614 -1.03395,-1.33747 -1.53167,-2.02071 -0.30962,-0.43788 -0.92887,-1e-5 -0.61925,0.43787 z" />
    <path
       style="fill:#000000;stroke-width:0.264583"
       id="path230"
       d="m 132.24321,155.17492 c 0.77964,-0.69031 1.4317,-1.5005 2.05355,-2.33113 0.55953,-0.76909 1.10641,-1.54745 1.6372,-2.33666 0.14023,-0.22695 0.0781,-0.12096 0.18847,-0.31669 0.26238,-0.46772 -0.39908,-0.83877 -0.66145,-0.37106 v 0 c -0.0894,0.16039 -0.0381,0.0718 -0.15635,0.26451 -0.52366,0.7787 -1.0633,1.54661 -1.61515,2.30557 -0.5927,0.79282 -1.21336,1.56689 -1.95747,2.22521 -0.39615,0.36148 0.11505,0.92172 0.5112,0.56025 z" />
    <path
       style="fill:#000000;stroke-width:0.264583"
       id="path232"
       d="m 49.769944,73.288807 c 0.34844,0.535627 0.708697,1.064143 1.095036,1.573245 0.139028,0.191848 0.314336,0.343257 0.509815,0.473607 0.450694,0.290649 0.861732,-0.346728 0.411038,-0.637377 v 0 c -0.126187,-0.07535 -0.229126,-0.17646 -0.316817,-0.294863 -0.374547,-0.493001 -0.722913,-1.005497 -1.060754,-1.524193 -0.289619,-0.451357 -0.927934,-0.04178 -0.638318,0.409581 z" />
    <path
       style="fill:#000000;stroke-width:0.264583"
       id="path234"
       d="m 52.540898,73.539885 c -0.346643,0.875128 -0.706323,1.745054 -1.063188,2.616054 -0.201816,0.490097 -0.40885,0.978109 -0.625179,1.461991 -0.06277,0.122124 -0.05129,0.16099 -0.07187,0.333028 0.05969,0.532953 0.813396,0.448545 0.753711,-0.08441 v 0 c -0.07258,0.325081 -0.03299,0.131638 0.01056,0.06089 0.219546,-0.491174 0.429776,-0.986484 0.63459,-1.483966 0.359785,-0.878128 0.722534,-1.75513 1.071626,-2.637575 0.188103,-0.502213 -0.522134,-0.768232 -0.710237,-0.266018 z" />
    <path
       style="fill:#0000ff;fill-opacity:1;stroke-width:0.264583"
       id="path236"
       d="m 31.531654,123.4432 c -0.04386,-0.72899 -0.111799,-1.45637 -0.182318,-2.18319 -0.0564,-0.59141 -0.142399,-1.17933 -0.239155,-1.76531 -0.05083,-0.29546 -0.09788,-0.59146 -0.135262,-0.88893 -0.01859,-0.16884 -0.04926,-0.33595 -0.07127,-0.50431 -0.0059,-0.0457 -0.01101,-0.0915 -0.01535,-0.13745 -0.205916,0.11298 -0.447653,0.17697 -0.617748,0.33894 -0.04378,0.0417 0.07471,0.0951 0.111986,0.14265 0.273202,0.34884 0.546808,0.697 0.826274,1.04086 0.430057,0.52161 0.882012,1.02447 1.353796,1.50851 0.301576,0.27791 0.551268,0.59947 0.795026,0.92705 0.21204,0.30004 0.449615,0.58009 0.680566,0.86536 0.03509,0.0423 0.07003,0.0848 0.105269,0.12704 0.06852,0.0821 0.306766,0.35851 0.200935,0.23919 0.283284,0.45536 0.927258,0.0547 0.643974,-0.40062 v 0 c -0.108044,-0.15702 -0.243677,-0.29267 -0.360772,-0.4429 -0.224505,-0.27718 -0.455652,-0.54912 -0.661539,-0.84085 -0.26381,-0.35447 -0.535815,-0.70159 -0.860453,-1.00375 -0.456066,-0.4675 -0.892486,-0.95364 -1.308287,-1.45741 -0.27682,-0.34049 -0.547672,-0.68536 -0.818243,-1.03081 -0.03821,-0.0488 -0.05294,-0.14981 -0.114799,-0.14621 -0.252065,0.0146 -0.487888,0.13026 -0.731831,0.1954 0.0052,0.058 0.01184,0.11589 0.01922,0.17367 0.02198,0.167 0.05194,0.33281 0.07075,0.50026 0.03864,0.30714 0.08696,0.61282 0.139476,0.9179 0.09405,0.56927 0.17778,1.14042 0.232563,1.71498 0.06928,0.71377 0.13598,1.42808 0.179535,2.14394 0.02405,0.53575 0.781711,0.50173 0.757658,-0.034 z" />
    <path
       style="fill:#0000ff;fill-opacity:1;stroke-width:0.264583"
       id="path238"
       d="m 31.504968,122.39844 c 0.257694,-0.0947 0.517458,-0.17754 0.783092,-0.24625 0.518714,-0.13615 0.326169,-0.86972 -0.192546,-0.73357 v 0 c -0.283004,0.0752 -0.561505,0.15992 -0.836124,0.26225 -0.507393,0.17365 -0.261814,0.89121 0.245578,0.71757 z" />
    <path
       style="fill:#0000ff;fill-opacity:1;stroke-width:0.264583"
       id="path240"
       d="m 13.33994,86.80982 c 0.598087,0.63509 1.257641,1.206424 1.934744,1.754766 0.245887,0.20141 0.499198,0.392151 0.764868,0.566474 0.448793,0.293574 0.86397,-0.341116 0.415177,-0.63469 v 0 c -0.244783,-0.159535 -0.476355,-0.336623 -0.702846,-0.52126 -0.648542,-0.52481 -1.280528,-1.071316 -1.853846,-1.678838 -0.363133,-0.394633 -0.92123,0.118914 -0.558097,0.513548 z" />
    <path
       style="fill:#0000ff;fill-opacity:1;stroke-width:0.264583"
       id="path242"
       d="m 16.596994,87.184445 c -0.166716,1.030359 -0.36887,2.054172 -0.595183,3.07295 -0.06864,0.374196 -0.190443,0.737504 -0.261635,1.110896 1.55e-4,0.05126 3.18e-4,0.102516 4.76e-4,0.153775 0.04783,0.534147 0.80323,0.466504 0.755399,-0.06764 v 0 c -0.003,0.01551 -0.0061,0.03102 -0.0091,0.04653 0.05147,-0.36424 0.207584,-0.713583 0.255288,-1.079126 0.229578,-1.033882 0.434742,-2.072858 0.603845,-3.118486 0.08408,-0.529653 -0.664967,-0.648554 -0.749043,-0.118901 z" />
    <path
       style="fill:#0000ff;fill-opacity:1;stroke-width:0.264583"
       id="path244"
       d="m 123.37037,108.21065 c 0.93727,0.39806 1.86875,0.80942 2.80039,1.2204 0.46992,0.20597 0.9349,0.42288 1.40036,0.63864 0.0763,0.0354 0.0422,0.0196 0.10235,0.0475 0.48636,0.22595 0.80591,-0.46187 0.31955,-0.68782 v 0 c -0.0606,-0.0281 -0.0263,-0.0122 -0.10294,-0.0478 -0.46973,-0.21774 -0.93899,-0.4366 -1.41321,-0.64445 -0.93443,-0.41221 -1.86872,-0.8248 -2.8088,-1.22405 -0.49324,-0.21051 -0.79094,0.48704 -0.2977,0.69755 z" />
    <path
       style="fill:#0000ff;fill-opacity:1;stroke-width:0.264583"
       id="path246"
       d="m 127.22501,105.75296 c -0.25496,1.0289 -0.68428,1.99811 -1.15056,2.94565 -0.28802,0.56309 -0.60301,1.11267 -0.95004,1.6415 -0.0896,0.13158 -0.0392,0.0442 -0.11998,0.27774 -0.10253,0.52639 0.6419,0.6714 0.74443,0.14501 v 0 c -0.063,0.10313 -0.0622,0.0992 0.01,-0.007 0.36381,-0.55514 0.69482,-1.13152 0.99643,-1.72274 0.48979,-0.99685 0.93906,-2.01711 1.20647,-3.09932 0.12798,-0.52079 -0.60853,-0.70178 -0.73651,-0.18098 z" />
    <path
       style="fill:#0000ff;fill-opacity:1;stroke-width:0.264583"
       id="path248"
       d="m 71.157053,145.05566 c 0.286184,-0.62525 0.471853,-1.28815 0.641596,-1.95242 0.153974,-0.60525 0.239935,-1.2233 0.289086,-1.84495 0.04718,-0.57778 -0.0087,-1.15163 -0.133805,-1.71552 -0.125828,-0.50596 -0.347416,-0.97612 -0.605631,-1.42617 -0.1968,-0.3244 -0.41902,-0.63372 -0.668946,-0.91925 -0.116112,-0.12551 -0.236252,-0.24721 -0.354719,-0.37049 -0.03971,-0.0414 -0.02135,-0.0223 -0.0551,-0.0575 -0.37075,-0.38749 -0.918739,0.13683 -0.547989,0.52432 v 0 c 0.03449,0.036 0.01574,0.0165 0.05624,0.0587 0.11077,0.11527 0.222872,0.22926 0.33215,0.34595 0.218217,0.24638 0.408408,0.51697 0.581144,0.79678 0.221602,0.3831 0.412371,0.78325 0.522883,1.21395 0.111566,0.4893 0.157628,0.98805 0.117678,1.48991 -0.04501,0.57846 -0.124944,1.15347 -0.267843,1.71669 -0.157943,0.61936 -0.329046,1.23803 -0.594979,1.82136 -0.225314,0.48666 0.462923,0.8053 0.688237,0.31865 z" />
    <path
       style="fill:#0000ff;fill-opacity:1;stroke-width:0.264583"
       id="path250"
       d="m 69.832628,138.65137 c -0.02376,-0.57447 -0.04322,-1.1491 -0.05973,-1.72382 -0.0038,-0.14667 -0.0087,-0.29332 -0.01027,-0.44004 0.08938,0.0707 -0.197848,0.31975 -0.179864,0.32057 0.188627,0.009 0.400672,-0.0281 0.589127,-0.0331 0.468201,0.0269 0.958328,-0.0299 1.419439,0.0753 0.024,0.0113 0.04798,0.0227 0.07197,0.0341 0.499634,0.19486 0.775203,-0.51173 0.275572,-0.70658 v 0 c -0.06565,-0.0236 -0.13131,-0.0472 -0.196964,-0.0708 -0.523113,-0.0986 -1.061495,-0.0807 -1.591633,-0.0901 -0.380698,0.0114 -0.877485,-0.0515 -1.113456,0.31999 -0.02904,0.0457 -0.02172,0.10614 -0.03257,0.15921 0.0019,0.15113 0.0066,0.30221 0.01053,0.45329 0.01656,0.57662 0.03607,1.15314 0.05992,1.7295 0.01942,0.53594 0.777341,0.50847 0.757923,-0.0275 z" />
    <path
       style="fill:#0000ff;fill-opacity:1;stroke-width:0.264583"
       id="path252"
       d="m 75.786994,136.8825 c -0.40051,0.50973 -0.648981,1.09762 -0.750657,1.73396 -0.07119,0.64938 0.179141,1.18788 0.569145,1.68602 0.385432,0.44205 0.892567,0.66899 1.452753,0.79443 0.584332,0.10402 1.168977,0.0659 1.740469,-0.0808 0.665832,-0.22962 1.030158,-0.52079 1.368859,-1.13717 0.278561,-0.64363 0.200107,-1.21016 -0.04598,-1.84392 -0.246483,-0.57581 -0.638998,-1.05925 -1.070584,-1.50518 -0.389551,-0.38993 -0.876855,-0.6175 -1.397939,-0.7713 -0.544915,-0.13949 -0.969579,-0.0262 -1.433759,0.2679 -0.436324,0.32663 -0.685051,0.80207 -0.88642,1.29518 -0.07549,0.20034 -0.135789,0.40673 -0.161017,0.61967 -0.01302,0.0844 0.0069,0.15418 0.02742,0.23726 0.184621,0.50351 0.896683,0.24241 0.712062,-0.26109 v 0 c 7.94e-4,0.005 0.01598,0.10244 0.01426,0.10806 0.01355,-0.14446 0.06375,-0.2828 0.110199,-0.41909 0.140351,-0.34977 0.302602,-0.69949 0.598959,-0.94548 0.250253,-0.17313 0.502068,-0.25609 0.807127,-0.17399 0.395989,0.11207 0.767466,0.27836 1.065131,0.57134 0.363865,0.37293 0.698145,0.77563 0.909849,1.25702 0.163549,0.39802 0.249891,0.79659 0.07927,1.21094 -0.185066,0.38172 -0.486061,0.62174 -0.890278,0.75636 -0.454242,0.12315 -0.921415,0.14872 -1.387751,0.073 -0.389117,-0.0794 -0.744651,-0.22589 -1.018995,-0.52509 -0.264858,-0.32601 -0.452482,-0.6658 -0.412771,-1.10125 0.06904,-0.50436 0.280924,-0.9663 0.591019,-1.37058 0.336661,-0.41744 -0.253694,-0.89356 -0.590357,-0.47611 z" />
    <path
       style="fill:#0000ff;fill-opacity:1;stroke-width:0.264583"
       id="path254"
       d="m 76.061528,138.92085 c 0.799563,-0.0648 1.602018,-0.0753 2.403769,-0.0766 0.178591,0.0224 0.368625,-0.0244 0.54606,0.0111 0.531905,0.0684 0.628653,-0.68382 0.09675,-0.75223 v 0 c -0.213969,-0.0232 -0.429025,-0.0147 -0.644055,-0.0173 -0.824026,10e-4 -1.648766,0.0126 -2.470507,0.0796 -0.534125,0.0481 -0.466143,0.80344 0.06798,0.75537 z" />
  </g>
</svg>
