<?xml version='1.0' encoding='ascii'?>
<svg xmlns="http://www.w3.org/2000/svg" height="1080" version="1.1" width="1920">
    <g id="View Layer_LineSet" inkscape:groupmode="lineset" inkscape:label="View Layer_LineSet" xmlns:inkscape="http://www.inkscape.org/namespaces/inkscape">
        <g id="strokes" inkscape:groupmode="layer" inkscape:label="strokes" xmlns:inkscape="http://www.inkscape.org/namespaces/inkscape">
            <path d=" M 1085.933, 178.669 1078.849, 180.922 1069.319, 183.953 1059.790, 186.984 1050.525, 189.930 1040.995, 192.961 1036.237, 194.474 1026.770, 191.255 1024.852, 190.602 1015.384, 187.383 1005.917, 184.163 996.449, 180.944 986.982, 177.724 977.514, 174.505 968.046, 171.285 958.579, 168.066 949.111, 164.846 939.644, 161.627 930.176, 158.407 920.709, 155.187 911.241, 151.968 902.328, 148.937 892.860, 145.717 883.393, 142.498 873.925, 139.278 871.591, 138.484 862.123, 135.265 859.763, 134.462 855.143, 132.891 852.022, 131.830 842.554, 128.610 833.087, 125.391 823.619, 122.171 814.954, 119.224 815.976, 117.437 818.054, 113.802 823.994, 105.757 826.221, 102.741 833.140, 95.521 835.398, 93.165 843.251, 86.974 845.515, 85.189 854.198, 80.229 856.492, 78.919 865.837, 75.359 868.235, 74.445 878.023, 72.393 880.642, 71.844 890.628, 71.329 893.596, 71.176 903.549, 72.144 906.974, 72.478 916.696, 74.819 920.644, 75.770 929.986, 79.337 934.462, 81.047 943.322, 85.684 948.283, 88.280 956.598, 93.837 961.957, 97.418 969.690, 103.759 975.330, 108.383 982.464, 115.390 988.250, 121.072 994.780, 128.645 1000.568, 135.358 1006.492, 143.414 1012.140, 151.093 1014.757, 155.259 1020.077, 163.726 1022.829, 168.106 1027.545, 176.924 1027.598, 177.023 1032.314, 185.841 1032.511, 186.209 1036.237, 194.474 " fill="none" stroke="rgb(0, 0, 0)" stroke-linecap="butt" stroke-linejoin="round" stroke-opacity="1.0" stroke-width="3.0" />
            <path d=" M 888.094, 430.809 895.965, 436.978 897.778, 438.399 906.177, 443.828 910.377, 446.543 919.274, 451.108 921.391, 452.194 923.192, 453.118 932.536, 456.682 936.116, 458.048 945.820, 460.463 949.035, 461.263 958.972, 462.387 961.834, 462.710 971.829, 462.421 974.393, 462.347 984.234, 460.572 986.593, 460.146 996.044, 456.880 998.311, 456.097 1007.603, 452.399 1016.894, 448.701 1026.185, 445.004 1035.476, 441.306 1044.767, 437.608 1046.612, 436.874 1055.903, 433.176 1063.214, 430.266 1068.679, 428.091 1077.532, 423.442 1079.945, 422.174 1083.769, 419.390 1090.505, 414.483 1097.692, 407.530 1100.241, 405.065 1106.460, 397.234 1109.040, 393.984 1109.199, 393.725 1114.425, 385.199 1116.797, 381.328 1121.040, 372.273 1123.415, 367.204 1126.706, 357.761 1128.806, 351.738 1131.189, 342.026 1132.894, 335.077 1134.416, 325.194 1135.618, 317.386 1136.324, 307.411 1136.931, 298.847 1136.865, 288.847 1136.804, 279.655 1136.002, 269.687 1135.225, 260.020 1133.719, 250.134 1132.199, 240.158 1130.015, 230.400 1127.830, 220.641 1127.752, 220.294 1124.910, 210.706 1122.067, 201.119 1121.929, 200.652 1118.443, 191.279 1114.957, 181.906 1114.791, 181.458 1110.672, 172.345 1106.554, 163.232 1106.418, 162.930 1101.674, 154.127 1096.907, 145.280 1091.542, 136.841 1086.369, 128.705 1080.384, 120.694 1074.927, 113.389 1068.324, 105.879 1062.715, 99.498 1055.501, 92.573 1049.877, 87.175 1042.061, 80.936 1036.559, 76.544 1028.166, 71.106 1022.913, 67.703 1013.986, 63.197 1009.092, 60.728 999.699, 57.296 995.246, 55.669 985.494, 53.456 981.522, 52.554 971.559, 51.690 968.062, 51.386 958.079, 51.968 955.001, 52.147 945.217, 54.216 942.463, 54.798 932.796, 57.357 923.129, 59.916 913.462, 62.474 903.795, 65.033 894.128, 67.592 884.461, 70.150 874.794, 72.709 868.235, 74.445 " fill="none" stroke="rgb(0, 0, 0)" stroke-linecap="butt" stroke-linejoin="round" stroke-opacity="1.0" stroke-width="3.0" />
            <path d=" M 1085.933, 178.669 1090.048, 187.783 1090.695, 189.217 1092.673, 194.528 1096.163, 203.900 1097.900, 208.562 1100.753, 218.146 1103.607, 227.730 1103.793, 228.353 1104.223, 230.259 1104.628, 232.051 " fill="none" stroke="rgb(0, 0, 0)" stroke-linecap="butt" stroke-linejoin="round" stroke-opacity="1.0" stroke-width="3.0" />
            <path d=" M 901.268, 161.910 910.721, 165.170 920.175, 168.431 929.628, 171.692 939.082, 174.952 948.535, 178.213 957.989, 181.474 967.442, 184.734 976.896, 187.995 986.349, 191.255 995.802, 194.516 1005.256, 197.777 1014.709, 201.037 1024.610, 204.452 1034.064, 207.713 1042.368, 210.577 1051.821, 213.838 1061.275, 217.098 1066.802, 219.005 1068.740, 219.673 1078.193, 222.934 1087.647, 226.194 1097.100, 229.455 1102.220, 231.221 1104.628, 232.051 1095.154, 235.251 1085.679, 238.451 1076.205, 241.650 1066.731, 244.850 1057.256, 248.049 1055.312, 248.706 " fill="none" stroke="rgb(0, 0, 0)" stroke-linecap="butt" stroke-linejoin="round" stroke-opacity="1.0" stroke-width="3.0" />
            <path d=" M 852.307, 176.332 861.727, 179.690 871.146, 183.049 880.565, 186.407 889.985, 189.765 899.404, 193.123 908.823, 196.481 918.242, 199.839 927.662, 203.197 937.081, 206.555 946.500, 209.913 955.920, 213.271 965.339, 216.629 974.758, 219.987 984.178, 223.346 993.112, 226.531 1002.532, 229.889 1011.951, 233.247 1021.370, 236.605 1024.234, 237.626 1033.653, 240.984 1043.073, 244.342 1052.492, 247.700 1052.906, 247.848 1055.312, 248.706 1057.553, 258.452 1059.119, 265.264 1060.703, 275.138 1062.287, 285.012 1062.375, 285.557 1063.276, 295.516 1064.188, 305.602 1064.373, 315.600 1064.551, 325.176 1063.981, 335.160 1063.472, 344.067 1062.101, 353.972 1060.980, 362.074 1058.758, 371.824 1057.119, 379.012 1053.992, 388.510 1051.949, 394.714 1047.865, 403.842 1045.544, 409.031 1040.462, 417.644 1037.989, 421.836 1031.889, 429.761 1029.380, 433.021 1022.280, 440.063 1019.823, 442.499 1011.790, 448.455 1009.428, 450.206 1000.592, 454.889 998.311, 456.097 " fill="none" stroke="rgb(0, 0, 0)" stroke-linecap="butt" stroke-linejoin="round" stroke-opacity="1.0" stroke-width="3.0" />
            <path d=" M 807.401, 155.236 799.462, 157.493 797.190, 167.231 796.484, 170.258 795.003, 180.148 794.020, 186.719 793.282, 196.692 792.754, 203.824 792.714, 213.823 792.684, 221.421 793.303, 231.401 793.797, 239.359 795.044, 249.281 795.110, 249.812 " fill="none" stroke="rgb(0, 0, 0)" stroke-linecap="butt" stroke-linejoin="round" stroke-opacity="1.0" stroke-width="3.0" />
            <path d=" M 935.588, 275.959 935.530, 277.788 " fill="none" stroke="rgb(0, 0, 0)" stroke-linecap="butt" stroke-linejoin="round" stroke-opacity="1.0" stroke-width="3.0" />
            <path d=" M 935.023, 281.220 934.579, 282.791 934.013, 284.243 " fill="none" stroke="rgb(0, 0, 0)" stroke-linecap="butt" stroke-linejoin="round" stroke-opacity="1.0" stroke-width="3.0" />
            <path d=" M 933.332, 285.564 932.542, 286.741 931.650, 287.762 " fill="none" stroke="rgb(0, 0, 0)" stroke-linecap="butt" stroke-linejoin="round" stroke-opacity="1.0" stroke-width="3.0" />
            <path d=" M 930.667, 288.619 929.600, 289.302 928.461, 289.806 928.461, 289.806 " fill="none" stroke="rgb(0, 0, 0)" stroke-linecap="butt" stroke-linejoin="round" stroke-opacity="1.0" stroke-width="3.0" />
            <path d=" M 928.461, 289.806 928.461, 289.806 " fill="none" stroke="rgb(0, 0, 0)" stroke-linecap="butt" stroke-linejoin="round" stroke-opacity="1.0" stroke-width="3.0" />
            <path d=" M 915.452, 251.685 915.452, 251.685 916.647, 251.342 917.895, 251.186 919.184, 251.219 " fill="none" stroke="rgb(0, 0, 0)" stroke-linecap="butt" stroke-linejoin="round" stroke-opacity="1.0" stroke-width="3.0" />
            <path d=" M 920.501, 251.440 921.833, 251.848 923.168, 252.440 " fill="none" stroke="rgb(0, 0, 0)" stroke-linecap="butt" stroke-linejoin="round" stroke-opacity="1.0" stroke-width="3.0" />
            <path d=" M 915.452, 251.685 915.452, 251.685 " fill="none" stroke="rgb(0, 0, 0)" stroke-linecap="butt" stroke-linejoin="round" stroke-opacity="1.0" stroke-width="3.0" />
            <path d=" M 929.430, 257.892 930.514, 259.408 " fill="none" stroke="rgb(0, 0, 0)" stroke-linecap="butt" stroke-linejoin="round" stroke-opacity="1.0" stroke-width="3.0" />
            <path d=" M 927.058, 255.250 928.274, 256.502 " fill="none" stroke="rgb(0, 0, 0)" stroke-linecap="butt" stroke-linejoin="round" stroke-opacity="1.0" stroke-width="3.0" />
            <path d=" M 931.515, 261.034 932.424, 262.755 " fill="none" stroke="rgb(0, 0, 0)" stroke-linecap="butt" stroke-linejoin="round" stroke-opacity="1.0" stroke-width="3.0" />
            <path d=" M 924.492, 253.209 925.793, 254.149 " fill="none" stroke="rgb(0, 0, 0)" stroke-linecap="butt" stroke-linejoin="round" stroke-opacity="1.0" stroke-width="3.0" />
            <path d=" M 799.462, 157.493 807.537, 160.371 " fill="none" stroke="rgb(0, 0, 0)" stroke-linecap="butt" stroke-linejoin="round" stroke-opacity="1.0" stroke-width="3.0" />
            <path d=" M 794.363, 307.518 794.659, 317.513 794.954, 327.509 795.250, 337.505 795.546, 347.500 795.842, 357.496 796.138, 367.492 796.434, 377.487 796.730, 387.483 797.026, 397.478 797.322, 407.474 797.618, 417.470 797.914, 427.465 798.210, 437.461 798.505, 447.457 798.801, 457.452 799.097, 467.448 799.393, 477.443 799.689, 487.439 800.037, 499.182 800.333, 509.177 800.629, 519.173 800.925, 529.169 801.221, 539.164 801.347, 543.447 810.284, 547.933 819.222, 552.419 828.159, 556.905 837.096, 561.392 846.033, 565.878 854.971, 570.364 861.365, 573.574 870.593, 569.723 879.822, 565.871 889.051, 562.020 889.814, 561.701 899.043, 557.850 908.272, 553.999 917.500, 550.147 920.963, 548.702 930.192, 544.851 939.421, 541.000 948.649, 537.148 957.878, 533.297 967.107, 529.446 976.335, 525.594 985.564, 521.743 994.792, 517.892 996.321, 517.254 1005.550, 513.403 1014.779, 509.551 1024.007, 505.700 1033.236, 501.849 1042.464, 497.997 1051.693, 494.146 1060.922, 490.295 1070.150, 486.444 1079.379, 482.592 1082.370, 481.344 1091.599, 477.493 1100.827, 473.642 1107.106, 471.021 1107.376, 461.025 1107.647, 451.029 1107.918, 441.032 1108.189, 431.036 1108.254, 428.621 1108.525, 418.625 1108.796, 408.629 1109.066, 398.632 1109.199, 393.725 " fill="none" stroke="rgb(0, 0, 0)" stroke-linecap="butt" stroke-linejoin="round" stroke-opacity="1.0" stroke-width="3.0" />
            <path d=" M 794.111, 299.021 793.815, 289.025 793.519, 279.029 793.223, 269.034 793.106, 265.083 793.316, 258.339 794.350, 252.108 795.110, 249.812 796.181, 246.579 798.760, 241.920 802.013, 238.276 805.846, 235.765 810.147, 234.470 814.785, 234.440 819.621, 235.682 826.921, 238.479 831.831, 240.975 836.635, 244.643 841.182, 249.375 845.329, 255.024 848.943, 261.416 851.910, 268.350 853.004, 271.912 854.137, 275.606 855.554, 282.956 856.119, 290.169 856.304, 300.167 856.489, 310.166 856.534, 312.593 856.561, 314.049 856.561, 314.049 856.746, 324.047 856.931, 334.045 857.116, 344.044 857.301, 354.042 857.486, 364.040 857.671, 374.039 857.856, 384.037 858.041, 394.035 858.157, 400.301 858.342, 410.300 858.528, 420.298 858.713, 430.296 858.898, 440.295 859.083, 450.293 859.268, 460.291 859.453, 470.289 859.561, 476.134 859.746, 486.132 859.931, 496.131 860.060, 503.088 860.245, 513.086 860.430, 523.084 860.531, 528.552 860.716, 538.550 860.901, 548.549 861.086, 558.547 861.272, 568.545 861.365, 573.574 " fill="none" stroke="rgb(0, 0, 0)" stroke-linecap="butt" stroke-linejoin="round" stroke-opacity="1.0" stroke-width="3.0" />
            <path d=" M 1083.333, 438.674 1074.107, 434.818 1064.880, 430.962 1063.214, 430.266 " fill="none" stroke="rgb(0, 0, 0)" stroke-linecap="butt" stroke-linejoin="round" stroke-opacity="1.0" stroke-width="3.0" />
            <path d=" M 805.846, 235.765 815.402, 232.818 824.958, 229.871 834.514, 226.924 835.938, 226.485 840.264, 225.182 844.923, 225.133 849.772, 226.346 857.086, 229.092 862.003, 231.549 866.806, 235.170 867.360, 235.741 871.346, 239.847 875.477, 245.438 879.071, 251.767 882.012, 258.636 883.090, 262.167 884.207, 265.829 885.589, 273.119 886.116, 280.276 886.247, 290.275 886.379, 300.274 886.427, 303.979 886.437, 304.708 886.568, 314.707 886.700, 324.706 886.831, 334.705 886.963, 344.704 887.094, 354.704 887.226, 364.703 887.357, 374.702 887.488, 384.701 887.620, 394.700 887.751, 404.699 887.883, 414.698 888.014, 424.698 888.094, 430.809 888.226, 440.808 888.357, 450.807 888.488, 460.807 888.542, 464.913 888.674, 474.912 888.805, 484.911 888.937, 494.910 889.068, 504.909 889.112, 508.280 889.227, 516.976 898.500, 513.235 907.774, 509.494 917.048, 505.753 920.804, 504.238 930.078, 500.497 939.352, 496.756 948.626, 493.015 957.911, 489.269 967.184, 485.528 976.458, 481.787 985.732, 478.046 995.006, 474.305 1004.280, 470.564 1013.554, 466.823 1022.828, 463.082 1032.101, 459.341 1041.375, 455.600 1050.649, 451.859 1059.923, 448.118 1069.197, 444.377 1078.471, 440.636 1083.333, 438.674 1083.559, 428.677 1083.769, 419.390 " fill="none" stroke="rgb(0, 0, 0)" stroke-linecap="butt" stroke-linejoin="round" stroke-opacity="1.0" stroke-width="3.0" />
            <path d=" M 831.997, 289.779 833.095, 291.347 834.113, 293.028 835.042, 294.804 835.872, 296.658 836.596, 298.572 837.205, 300.528 837.695, 302.505 838.060, 304.486 838.298, 306.449 838.405, 308.377 838.380, 310.249 838.225, 312.049 837.941, 313.759 837.531, 315.361 836.998, 316.841 836.349, 318.185 835.590, 319.379 834.728, 320.412 833.772, 321.275 832.731, 321.960 831.616, 322.459 831.616, 322.459 " fill="none" stroke="rgb(0, 0, 0)" stroke-linecap="butt" stroke-linejoin="round" stroke-opacity="1.0" stroke-width="3.0" />
            <path d=" M 831.616, 322.459 831.615, 322.460 " fill="none" stroke="rgb(0, 0, 0)" stroke-linecap="butt" stroke-linejoin="round" stroke-opacity="1.0" stroke-width="3.0" />
            <path d=" M 818.082, 283.223 818.082, 283.223 " fill="none" stroke="rgb(0, 0, 0)" stroke-linecap="butt" stroke-linejoin="round" stroke-opacity="1.0" stroke-width="3.0" />
            <path d=" M 829.607, 287.038 830.831, 288.338 " fill="none" stroke="rgb(0, 0, 0)" stroke-linecap="butt" stroke-linejoin="round" stroke-opacity="1.0" stroke-width="3.0" />
            <path d=" M 820.486, 282.746 821.759, 282.797 823.063, 283.042 823.646, 283.235 824.386, 283.479 825.715, 284.104 827.036, 284.911 828.338, 285.892 " fill="none" stroke="rgb(0, 0, 0)" stroke-linecap="butt" stroke-linejoin="round" stroke-opacity="1.0" stroke-width="3.0" />
            <path d=" M 800.476, 288.926 801.646, 288.593 802.694, 288.473 802.872, 288.453 804.141, 288.508 805.443, 288.757 806.764, 289.200 808.091, 289.830 809.412, 290.644 810.714, 291.632 811.983, 292.786 813.208, 294.095 814.376, 295.545 815.477, 297.123 816.498, 298.814 817.430, 300.600 818.264, 302.464 818.992, 304.388 819.607, 306.354 820.102, 308.341 820.473, 310.331 820.716, 312.303 820.829, 314.239 820.811, 316.120 820.662, 317.927 820.385, 319.643 819.981, 321.251 819.455, 322.736 818.812, 324.083 818.058, 325.280 817.202, 326.316 816.251, 327.180 815.656, 327.573 815.216, 327.865 814.105, 328.364 812.930, 328.672 811.702, 328.788 810.434, 328.711 809.136, 328.441 807.823, 327.982 806.505, 327.337 805.196, 326.514 803.909, 325.521 802.655, 324.367 801.446, 323.063 800.294, 321.622 799.210, 320.057 798.203, 318.384 797.283, 316.618 796.460, 314.776 795.740, 312.875 795.130, 310.934 794.637, 308.971 794.363, 307.518 794.265, 307.004 794.018, 305.051 793.898, 303.133 793.906, 301.266 794.042, 299.468 794.111, 299.021 794.306, 297.757 794.694, 296.149 795.204, 294.659 795.831, 293.303 796.569, 292.092 797.410, 291.040 798.348, 290.156 799.373, 289.449 800.476, 288.926 802.633, 288.227 812.146, 285.146 818.082, 283.223 818.082, 283.223 " fill="none" stroke="rgb(0, 0, 0)" stroke-linecap="butt" stroke-linejoin="round" stroke-opacity="1.0" stroke-width="3.0" />
            <path d=" M 814.105, 328.364 815.746, 327.810 824.655, 324.807 831.615, 322.460 831.616, 322.459 " fill="none" stroke="rgb(0, 0, 0)" stroke-linecap="butt" stroke-linejoin="round" stroke-opacity="1.0" stroke-width="3.0" />
            <path d=" M 928.461, 289.806 928.461, 289.806 928.461, 289.806 929.600, 289.302 930.667, 288.619 " fill="none" stroke="rgb(0, 0, 0)" stroke-linecap="butt" stroke-linejoin="round" stroke-opacity="1.0" stroke-width="3.0" />
            <path d=" M 931.650, 287.762 932.542, 286.741 933.332, 285.564 " fill="none" stroke="rgb(0, 0, 0)" stroke-linecap="butt" stroke-linejoin="round" stroke-opacity="1.0" stroke-width="3.0" />
            <path d=" M 934.013, 284.243 934.579, 282.791 935.023, 281.220 " fill="none" stroke="rgb(0, 0, 0)" stroke-linecap="butt" stroke-linejoin="round" stroke-opacity="1.0" stroke-width="3.0" />
            <path d=" M 935.530, 277.788 935.588, 275.959 " fill="none" stroke="rgb(0, 0, 0)" stroke-linecap="butt" stroke-linejoin="round" stroke-opacity="1.0" stroke-width="3.0" />
            <path d=" M 932.424, 262.755 931.515, 261.034 " fill="none" stroke="rgb(0, 0, 0)" stroke-linecap="butt" stroke-linejoin="round" stroke-opacity="1.0" stroke-width="3.0" />
            <path d=" M 930.514, 259.408 929.430, 257.892 " fill="none" stroke="rgb(0, 0, 0)" stroke-linecap="butt" stroke-linejoin="round" stroke-opacity="1.0" stroke-width="3.0" />
            <path d=" M 928.274, 256.502 927.058, 255.250 " fill="none" stroke="rgb(0, 0, 0)" stroke-linecap="butt" stroke-linejoin="round" stroke-opacity="1.0" stroke-width="3.0" />
            <path d=" M 925.793, 254.149 924.492, 253.209 " fill="none" stroke="rgb(0, 0, 0)" stroke-linecap="butt" stroke-linejoin="round" stroke-opacity="1.0" stroke-width="3.0" />
            <path d=" M 923.168, 252.440 921.833, 251.848 920.501, 251.440 " fill="none" stroke="rgb(0, 0, 0)" stroke-linecap="butt" stroke-linejoin="round" stroke-opacity="1.0" stroke-width="3.0" />
            <path d=" M 919.184, 251.219 917.895, 251.186 916.647, 251.342 915.452, 251.685 915.452, 251.685 915.452, 251.685 " fill="none" stroke="rgb(0, 0, 0)" stroke-linecap="butt" stroke-linejoin="round" stroke-opacity="1.0" stroke-width="3.0" />
            <path d=" M 920.963, 548.702 921.036, 558.702 921.055, 561.218 921.128, 571.218 921.200, 581.218 921.273, 591.217 921.333, 599.461 921.357, 601.162 921.740, 602.856 922.480, 604.526 923.569, 606.156 925.000, 607.729 926.760, 609.231 928.831, 610.646 931.195, 611.961 933.828, 613.161 936.707, 614.235 939.802, 615.171 943.083, 615.961 946.519, 616.595 950.074, 617.068 953.713, 617.375 957.401, 617.512 961.100, 617.478 962.137, 617.420 964.774, 617.273 968.385, 616.899 971.897, 616.361 975.277, 615.664 978.490, 614.815 981.504, 613.823 984.291, 612.697 986.823, 611.450 989.075, 610.094 991.027, 608.642 992.661, 607.110 993.960, 605.512 994.915, 603.864 995.516, 602.183 995.760, 600.485 995.827, 590.485 995.895, 580.485 995.962, 570.485 996.030, 560.486 996.033, 559.932 996.101, 549.933 996.168, 539.933 996.236, 529.933 996.303, 519.933 996.321, 517.254 " fill="none" stroke="rgb(0, 0, 0)" stroke-linecap="butt" stroke-linejoin="round" stroke-opacity="1.0" stroke-width="3.0" />
            <path d=" M 921.055, 561.218 911.839, 565.100 902.623, 568.982 893.407, 572.864 884.192, 576.746 874.976, 580.629 865.760, 584.511 856.545, 588.393 847.329, 592.275 838.113, 596.157 832.572, 598.491 832.812, 608.488 833.052, 618.485 833.292, 628.482 833.532, 638.480 833.773, 648.477 834.013, 658.474 834.253, 668.471 834.493, 678.468 834.733, 688.465 834.973, 698.462 835.214, 708.459 835.454, 718.457 835.694, 728.454 835.934, 738.451 836.174, 748.448 836.415, 758.445 836.655, 768.442 836.895, 778.439 837.165, 789.679 845.789, 794.741 854.413, 799.803 863.037, 804.866 871.661, 809.928 880.285, 814.990 888.909, 820.053 897.533, 825.115 906.157, 830.177 914.781, 835.239 923.405, 840.302 932.029, 845.364 940.653, 850.426 949.277, 855.489 954.782, 858.720 963.655, 854.108 972.528, 849.497 981.401, 844.885 990.274, 840.273 999.148, 835.662 1008.021, 831.050 1016.894, 826.438 1025.767, 821.827 1034.640, 817.215 1043.513, 812.603 1052.386, 807.991 1061.259, 803.380 1070.132, 798.768 1079.006, 794.156 1080.300, 793.483 1080.536, 783.486 1080.771, 773.489 1081.006, 763.492 1081.242, 753.495 1081.477, 743.497 1081.713, 733.500 1081.948, 723.503 1082.183, 713.506 1082.419, 703.508 1082.654, 693.511 1082.890, 683.514 1083.125, 673.517 1083.360, 663.520 1083.596, 653.522 1083.831, 643.525 1084.067, 633.528 1084.302, 623.531 1084.537, 613.533 1084.810, 601.959 1075.772, 597.681 1066.733, 593.402 1057.695, 589.123 1048.656, 584.844 1039.618, 580.566 1030.580, 576.287 1021.541, 572.008 1012.503, 567.729 1003.465, 563.450 996.033, 559.932 " fill="none" stroke="rgb(0, 0, 0)" stroke-linecap="butt" stroke-linejoin="round" stroke-opacity="1.0" stroke-width="3.0" />
            <path d=" M 1084.810, 601.959 1075.716, 606.119 1066.622, 610.279 1057.528, 614.438 1048.434, 618.598 1039.341, 622.757 1030.247, 626.917 1021.153, 631.076 1012.059, 635.236 1002.965, 639.395 993.871, 643.555 984.777, 647.714 975.684, 651.874 966.590, 656.033 957.496, 660.193 954.578, 661.528 " fill="none" stroke="rgb(0, 0, 0)" stroke-linecap="butt" stroke-linejoin="round" stroke-opacity="1.0" stroke-width="3.0" />
            <path d=" M 832.572, 598.491 841.456, 603.081 850.340, 607.672 859.224, 612.262 868.109, 616.852 876.993, 621.442 885.877, 626.032 894.761, 630.622 903.646, 635.213 912.530, 639.803 921.414, 644.393 930.299, 648.983 939.183, 653.573 948.067, 658.164 954.578, 661.528 954.588, 671.528 954.599, 681.528 954.609, 691.528 954.619, 701.528 954.630, 711.528 954.640, 721.528 954.650, 731.527 954.661, 741.527 954.671, 751.527 954.681, 761.527 954.692, 771.527 954.702, 781.527 954.712, 791.527 954.723, 801.527 954.733, 811.527 954.743, 821.527 954.754, 831.527 954.764, 841.527 954.775, 851.527 954.782, 858.720 " fill="none" stroke="rgb(0, 0, 0)" stroke-linecap="butt" stroke-linejoin="round" stroke-opacity="1.0" stroke-width="3.0" />
            <path d=" M 815.976, 117.437 806.466, 120.038 806.732, 130.034 806.997, 140.031 807.263, 150.027 807.401, 155.236 807.537, 160.371 807.579, 161.922 816.996, 165.284 826.414, 168.647 835.831, 172.010 845.249, 175.373 849.911, 177.038 852.307, 176.332 861.900, 173.507 865.504, 172.445 875.097, 169.619 884.689, 166.794 894.281, 163.968 901.268, 161.910 902.454, 161.560 902.354, 151.561 902.328, 148.937 " fill="none" stroke="rgb(0, 0, 0)" stroke-linecap="butt" stroke-linejoin="round" stroke-opacity="1.0" stroke-width="3.0" />
            <path d=" M 849.095, 134.594 849.201, 140.061 849.393, 150.059 849.585, 160.057 849.777, 170.055 849.911, 177.038 " fill="none" stroke="rgb(0, 0, 0)" stroke-linecap="butt" stroke-linejoin="round" stroke-opacity="1.0" stroke-width="3.0" />
            <path d=" M 855.143, 132.891 851.286, 133.977 849.095, 134.594 839.632, 131.362 830.168, 128.131 820.705, 124.900 811.241, 121.668 806.466, 120.038 " fill="none" stroke="rgb(0, 0, 0)" stroke-linecap="butt" stroke-linejoin="round" stroke-opacity="1.0" stroke-width="3.0" />
            <path d=" M 818.082, 283.223 818.082, 283.223 " fill="none" stroke="rgb(0, 0, 0)" stroke-linecap="butt" stroke-linejoin="round" stroke-opacity="1.0" stroke-width="3.0" />
            <path d=" M 921.391, 452.194 912.065, 455.805 902.740, 459.415 893.415, 463.026 888.542, 464.913 " fill="none" stroke="rgb(0, 0, 0)" stroke-linecap="butt" stroke-linejoin="round" stroke-opacity="1.0" stroke-width="3.0" />
            <path d=" M 915.452, 251.685 905.938, 254.767 896.425, 257.848 886.911, 260.929 883.090, 262.167 " fill="none" stroke="rgb(0, 0, 0)" stroke-linecap="butt" stroke-linejoin="round" stroke-opacity="1.0" stroke-width="3.0" />
            <path d=" M 928.461, 289.806 928.461, 289.806 " fill="none" stroke="rgb(0, 0, 0)" stroke-linecap="butt" stroke-linejoin="round" stroke-opacity="1.0" stroke-width="3.0" />
            <path d=" M 886.427, 303.979 895.903, 300.784 905.379, 297.589 914.855, 294.394 924.331, 291.199 928.461, 289.806 " fill="none" stroke="rgb(0, 0, 0)" stroke-linecap="butt" stroke-linejoin="round" stroke-opacity="1.0" stroke-width="3.0" />
        </g>
    </g>
</svg>
