<?xml version='1.0' encoding='ascii'?>
<svg xmlns="http://www.w3.org/2000/svg" height="1080" version="1.1" width="1920">
    <g id="View Layer_LineSet" inkscape:groupmode="lineset" inkscape:label="View Layer_LineSet" xmlns:inkscape="http://www.inkscape.org/namespaces/inkscape">
        <g id="strokes" inkscape:groupmode="layer" inkscape:label="strokes" xmlns:inkscape="http://www.inkscape.org/namespaces/inkscape">
            <path d=" M 1050.910, 637.820 1041.104, 639.780 1031.298, 641.741 1021.492, 643.701 1011.686, 645.661 1001.880, 647.621 992.074, 649.582 982.268, 651.542 972.462, 653.502 962.656, 655.462 952.850, 657.422 943.044, 659.383 933.238, 661.343 923.432, 663.303 913.626, 665.263 903.820, 667.223 894.014, 669.184 884.208, 671.144 874.402, 673.104 864.596, 675.064 854.790, 677.024 844.984, 678.985 835.178, 680.945 825.372, 682.905 815.566, 684.865 805.760, 686.825 795.954, 688.786 786.148, 690.746 776.342, 692.706 766.536, 694.666 756.730, 696.626 746.924, 698.587 737.118, 700.547 727.312, 702.507 717.506, 704.467 707.700, 706.427 697.894, 708.388 688.088, 710.348 678.282, 712.308 673.545, 713.255 682.537, 717.630 691.529, 722.006 700.521, 726.382 709.513, 730.757 718.505, 735.133 727.497, 739.508 736.489, 743.884 745.481, 748.259 754.473, 752.635 763.464, 757.010 772.456, 761.386 781.448, 765.761 790.440, 770.137 799.432, 774.512 808.424, 778.888 817.416, 783.264 826.408, 787.639 835.400, 792.015 844.392, 796.390 853.384, 800.766 862.376, 805.141 871.367, 809.517 880.359, 813.892 889.351, 818.268 898.343, 822.643 907.335, 827.019 916.327, 831.395 925.319, 835.770 934.311, 840.146 943.303, 844.521 952.295, 848.897 961.287, 853.272 970.279, 857.648 979.271, 862.023 988.262, 866.399 997.254, 870.774 1001.176, 872.683 1010.855, 870.171 1020.535, 867.660 1030.214, 865.148 1039.894, 862.637 1049.573, 860.126 1059.253, 857.614 1068.932, 855.103 1078.612, 852.591 1088.291, 850.080 1097.971, 847.568 1107.650, 845.057 1117.330, 842.546 1127.009, 840.034 1136.689, 837.523 1146.368, 835.011 1156.048, 832.500 1165.727, 829.989 1175.407, 827.477 1185.086, 824.966 1194.766, 822.454 1204.445, 819.943 1214.125, 817.431 1223.804, 814.920 1233.484, 812.409 1243.163, 809.897 1252.843, 807.386 1262.522, 804.874 1272.202, 802.363 1281.881, 799.852 1291.561, 797.340 1301.240, 794.829 1310.920, 792.317 1320.599, 789.806 1330.279, 787.294 1339.958, 784.783 1349.638, 782.272 1359.317, 779.760 1368.997, 777.249 1378.676, 774.737 1388.356, 772.226 1398.035, 769.715 1407.715, 767.203 1417.394, 764.692 1427.074, 762.180 1436.753, 759.669 1446.433, 757.158 1456.112, 754.646 1464.027, 752.593 1454.580, 749.313 1445.133, 746.033 1435.686, 742.754 1426.240, 739.474 1416.793, 736.194 1407.346, 732.915 1397.899, 729.635 1388.452, 726.355 1379.005, 723.076 1369.558, 719.796 1360.111, 716.516 1350.664, 713.237 1341.217, 709.957 1331.771, 706.677 1322.324, 703.398 1312.877, 700.118 1303.430, 696.839 1293.983, 693.559 1284.536, 690.279 1275.089, 687.000 1265.642, 683.720 1256.195, 680.440 1246.748, 677.161 1237.302, 673.881 1227.855, 670.601 1218.408, 667.322 1208.961, 664.042 1199.514, 660.762 1190.067, 657.483 1180.620, 654.203 1171.173, 650.923 1161.726, 647.644 1152.279, 644.364 1142.833, 641.084 1133.386, 637.805 1123.939, 634.525 1114.492, 631.246 1103.277, 627.352 1093.471, 629.312 1083.665, 631.273 1073.859, 633.233 1069.934, 634.017 " fill="none" stroke="rgb(0, 0, 0)" stroke-linecap="butt" stroke-linejoin="round" stroke-opacity="1.0" stroke-width="3.0" />
            <path d=" M 1050.791, 652.101 1048.587, 652.183 1040.534, 652.951 1033.206, 654.148 1026.874, 655.730 1021.783, 657.641 1018.130, 659.812 1016.067, 662.164 1013.396, 671.800 1010.724, 681.437 1008.053, 691.073 1005.382, 700.710 1002.711, 710.347 1000.039, 719.983 997.653, 728.591 997.036, 732.322 998.828, 736.061 1002.991, 739.662 1009.391, 742.981 1017.798, 745.883 1027.534, 748.162 1027.892, 748.246 1037.779, 749.742 1039.277, 749.968 1049.243, 750.791 1051.496, 750.977 1061.494, 751.177 1064.048, 751.228 1074.040, 750.810 1076.420, 750.711 1086.362, 749.635 1088.103, 749.446 1097.935, 747.619 1098.625, 747.491 1107.564, 744.928 1114.577, 741.866 1119.405, 738.433 1121.883, 734.767 1121.945, 731.015 1119.446, 721.332 1116.948, 711.649 1114.449, 701.966 1111.950, 692.284 1109.452, 682.601 1106.953, 672.918 1104.587, 663.752 1102.985, 661.330 1099.758, 659.031 1095.042, 656.942 1089.026, 655.138 1081.941, 653.685 1074.054, 652.633 1069.749, 652.319 " fill="none" stroke="rgb(0, 0, 0)" stroke-linecap="butt" stroke-linejoin="round" stroke-opacity="1.0" stroke-width="3.0" />
            <path d=" M 1104.587, 663.752 1104.488, 666.206 1102.675, 668.597 1099.203, 670.831 1094.194, 672.819 1087.838, 674.479 1080.377, 675.744 1072.108, 676.561 1063.360, 676.896 1054.484, 676.734 1045.840, 676.082 1037.773, 674.968 1030.604, 673.438 1024.614, 671.555 1020.029, 669.397 1017.019, 667.050 1015.686, 664.607 1016.067, 662.164 " fill="none" stroke="rgb(0, 0, 0)" stroke-linecap="butt" stroke-linejoin="round" stroke-opacity="1.0" stroke-width="3.0" />
            <path d=" M 1053.940, 274.772 1053.857, 284.772 1053.773, 294.772 1053.690, 304.771 1053.606, 314.771 1053.523, 324.771 1053.439, 334.770 1053.356, 344.770 1053.272, 354.769 1053.189, 364.769 1053.105, 374.769 1053.022, 384.768 1052.939, 394.768 1052.855, 404.768 1052.772, 414.767 1052.688, 424.767 1052.605, 434.767 1052.521, 444.766 1052.438, 454.766 1052.354, 464.766 1052.271, 474.765 1052.187, 484.765 1052.104, 494.765 1052.021, 504.764 1051.937, 514.764 1051.854, 524.764 1051.770, 534.763 1051.687, 544.763 1051.603, 554.763 1051.520, 564.762 1051.436, 574.762 1051.353, 584.761 1051.269, 594.761 1051.186, 604.761 1051.102, 614.760 1051.019, 624.760 1050.910, 637.820 1050.826, 647.820 1050.791, 652.101 1050.707, 662.101 1050.691, 664.046 1051.033, 664.564 1051.728, 665.057 1052.748, 665.506 1054.054, 665.895 1055.598, 666.206 1057.319, 666.430 1059.150, 666.555 1061.020, 666.579 1062.858, 666.499 1064.591, 666.320 1066.152, 666.047 1067.482, 665.692 1068.528, 665.269 1069.251, 664.793 1069.625, 664.284 1069.634, 663.761 1069.735, 653.761 1069.749, 652.319 1069.850, 642.320 1069.934, 634.017 1070.035, 624.018 1070.136, 614.018 1070.236, 604.019 1070.337, 594.019 1070.429, 584.975 " fill="none" stroke="rgb(0, 0, 0)" stroke-linecap="butt" stroke-linejoin="round" stroke-opacity="1.0" stroke-width="3.0" />
            <path d=" M 1071.418, 275.621 1071.458, 271.560 1071.479, 269.447 1071.579, 259.385 1071.619, 255.385 1071.621, 255.190 1071.720, 245.191 1071.819, 235.191 1071.831, 233.934 1071.920, 224.947 " fill="none" stroke="rgb(0, 0, 0)" stroke-linecap="butt" stroke-linejoin="round" stroke-opacity="1.0" stroke-width="3.0" />
            <path d=" M 1086.653, 219.236 1077.432, 222.811 1071.920, 224.947 1061.929, 224.527 1055.626, 224.261 1045.635, 223.841 1041.529, 223.668 " fill="none" stroke="rgb(0, 0, 0)" stroke-linecap="butt" stroke-linejoin="round" stroke-opacity="1.0" stroke-width="3.0" />
            <path d=" M 1055.682, 218.390 1046.312, 221.884 1041.529, 223.668 1041.457, 233.667 1041.385, 243.667 1041.313, 253.667 1041.241, 263.667 1041.165, 274.152 1051.153, 274.637 1053.940, 274.772 1063.928, 275.257 1071.418, 275.621 1073.560, 274.664 1082.691, 270.587 1086.094, 269.067 1086.106, 268.069 " fill="none" stroke="rgb(0, 0, 0)" stroke-linecap="butt" stroke-linejoin="round" stroke-opacity="1.0" stroke-width="3.0" />
            <path d=" M 1086.291, 251.566 1086.402, 241.566 1086.514, 231.567 1086.626, 221.568 1086.653, 219.236 1076.661, 218.824 1072.673, 218.659 " fill="none" stroke="rgb(0, 0, 0)" stroke-linecap="butt" stroke-linejoin="round" stroke-opacity="1.0" stroke-width="3.0" />
            <path d=" M 1072.722, 249.553 1072.822, 239.554 1072.876, 234.176 1072.937, 228.112 1082.247, 224.464 1085.595, 223.152 " fill="none" stroke="rgb(0, 0, 0)" stroke-linecap="butt" stroke-linejoin="round" stroke-opacity="1.0" stroke-width="3.0" />
            <path d=" M 1072.502, 271.610 1072.509, 270.927 1072.521, 269.671 1072.534, 268.422 1072.564, 265.435 1072.618, 260.006 1072.668, 254.941 1072.672, 254.609 1072.672, 254.547 1072.722, 249.553 " fill="none" stroke="rgb(0, 0, 0)" stroke-linecap="butt" stroke-linejoin="round" stroke-opacity="1.0" stroke-width="3.0" />
            <path d=" M 1400.399, 163.252 1400.012, 173.245 1399.625, 183.237 1399.238, 193.230 1398.851, 203.222 1398.464, 213.215 1398.076, 223.207 1397.689, 233.200 1397.302, 243.192 1396.915, 253.185 1396.584, 261.705 1395.952, 271.685 1395.508, 278.698 1394.386, 288.635 1393.604, 295.556 1391.993, 305.426 1390.882, 312.235 1388.785, 322.013 1387.353, 328.691 1384.775, 338.353 1383.032, 344.882 1379.976, 354.404 1377.934, 360.766 1374.407, 370.123 1372.078, 376.302 1368.086, 385.471 1365.499, 391.414 1365.482, 391.453 " fill="none" stroke="rgb(0, 0, 0)" stroke-linecap="butt" stroke-linejoin="round" stroke-opacity="1.0" stroke-width="3.0" />
            <path d=" M 1370.645, 414.823 1371.641, 413.057 1371.771, 412.796 1372.650, 411.034 1377.115, 402.086 1379.308, 397.690 1379.455, 397.371 1383.464, 388.210 1386.368, 381.575 1389.913, 372.224 1392.511, 365.372 1395.584, 355.856 1397.862, 348.805 1400.457, 339.148 1402.402, 331.914 1404.515, 322.140 1406.114, 314.743 1407.740, 304.876 1408.983, 297.336 1410.120, 287.401 1410.997, 279.739 1411.644, 269.760 1412.147, 261.999 1412.548, 252.007 1412.949, 242.015 1413.350, 232.023 1413.751, 222.031 1414.152, 212.039 1414.553, 202.048 1414.954, 192.056 1415.355, 182.064 1415.755, 172.072 1416.089, 163.769 " fill="none" stroke="rgb(0, 0, 0)" stroke-linecap="butt" stroke-linejoin="round" stroke-opacity="1.0" stroke-width="3.0" />
            <path d=" M 1408.810, 262.786 1407.475, 262.856 1409.974, 262.681 1408.810, 262.786 " fill="none" stroke="rgb(0, 0, 0)" stroke-linecap="butt" stroke-linejoin="round" stroke-opacity="1.0" stroke-width="3.0" />
            <path d=" M 1070.429, 584.975 1076.380, 585.350 1086.379, 585.481 1092.311, 585.559 1102.304, 585.192 1108.244, 584.973 1118.206, 584.105 1124.142, 583.587 1134.048, 582.218 1139.971, 581.399 1149.794, 579.530 1155.692, 578.408 1165.408, 576.042 1171.270, 574.615 1180.853, 571.757 1186.667, 570.024 1196.092, 566.680 1201.847, 564.638 1211.088, 560.816 1216.772, 558.466 1225.805, 554.175 1231.406, 551.514 1231.816, 551.313 1240.617, 546.564 1246.121, 543.594 1254.666, 538.399 1260.060, 535.119 1268.327, 529.492 1273.598, 525.903 1281.564, 519.859 1286.697, 515.963 1294.343, 509.517 1299.323, 505.318 1306.628, 498.488 1311.441, 493.988 1318.386, 486.793 1323.017, 481.996 1329.585, 474.455 1334.017, 469.367 1340.192, 461.501 1344.410, 456.129 1350.177, 447.959 1354.165, 442.310 1355.473, 440.241 " fill="none" stroke="rgb(0, 0, 0)" stroke-linecap="butt" stroke-linejoin="round" stroke-opacity="1.0" stroke-width="3.0" />
            <path d=" M 1342.549, 432.479 1341.668, 433.879 1335.919, 442.061 1332.362, 447.124 1326.204, 455.003 1322.443, 459.816 1315.891, 467.371 1311.941, 471.928 1305.012, 479.138 1300.886, 483.432 1293.597, 490.279 1289.309, 494.306 1281.679, 500.770 1277.244, 504.527 1269.291, 510.590 1264.722, 514.074 1256.469, 519.721 1251.778, 522.930 1243.246, 528.144 1238.447, 531.077 1229.657, 535.847 1224.762, 538.503 1215.739, 542.814 1211.117, 545.023 1210.760, 545.194 " fill="none" stroke="rgb(0, 0, 0)" stroke-linecap="butt" stroke-linejoin="round" stroke-opacity="1.0" stroke-width="3.0" />
            <path d=" M 1211.117, 545.023 1201.885, 548.866 1196.888, 550.946 1187.471, 554.310 1182.355, 556.138 1172.779, 559.017 1167.612, 560.570 1157.901, 562.957 1152.692, 564.237 1142.872, 566.127 1137.631, 567.136 1127.728, 568.526 1122.465, 569.265 1112.505, 570.153 1107.229, 570.624 1097.236, 571.012 1091.956, 571.216 1081.957, 571.104 1076.683, 571.044 1070.573, 570.671 " fill="none" stroke="rgb(0, 0, 0)" stroke-linecap="butt" stroke-linejoin="round" stroke-opacity="1.0" stroke-width="3.0" />
            <path d=" M 1045.263, 151.562 1055.257, 151.891 1056.244, 151.924 1066.238, 152.253 1073.332, 152.486 1083.326, 152.815 1093.321, 153.144 1103.316, 153.473 1113.310, 153.802 1123.305, 154.131 1133.299, 154.460 1143.294, 154.789 1153.288, 155.118 1163.283, 155.447 1173.278, 155.776 1183.272, 156.105 1193.267, 156.434 1203.261, 156.763 1213.256, 157.092 1223.251, 157.421 1233.245, 157.750 1243.240, 158.079 1253.234, 158.408 1263.229, 158.737 1273.224, 159.066 1283.218, 159.395 1293.213, 159.724 1303.207, 160.053 1313.202, 160.382 1323.197, 160.711 1333.191, 161.040 1343.186, 161.369 1353.180, 161.698 1363.175, 162.027 1373.169, 162.356 1383.164, 162.685 1393.159, 163.014 1400.399, 163.252 1410.394, 163.581 1416.089, 163.769 1416.135, 163.770 1420.734, 161.339 1421.013, 154.446 1411.018, 154.128 1401.023, 153.811 1391.028, 153.493 1381.033, 153.176 1371.038, 152.858 1361.043, 152.541 1351.048, 152.223 1341.053, 151.906 1331.058, 151.588 1321.063, 151.271 1311.068, 150.953 1301.073, 150.636 1291.078, 150.318 1281.084, 150.001 1271.089, 149.683 1261.094, 149.366 1251.099, 149.048 1241.104, 148.731 1231.109, 148.413 1221.114, 148.096 1211.119, 147.778 1201.124, 147.461 1191.129, 147.143 1181.134, 146.826 1171.139, 146.508 1161.144, 146.191 1151.149, 145.873 1141.154, 145.556 1131.159, 145.238 1121.164, 144.921 1111.169, 144.604 1101.174, 144.286 1091.179, 143.969 1081.184, 143.651 1071.189, 143.334 1061.194, 143.016 1052.889, 142.752 1045.313, 144.914 1045.263, 151.562 " fill="none" stroke="rgb(0, 0, 0)" stroke-linecap="butt" stroke-linejoin="round" stroke-opacity="1.0" stroke-width="3.0" />
            <path d=" M 1416.414, 156.816 1421.013, 154.446 " fill="none" stroke="rgb(0, 0, 0)" stroke-linecap="butt" stroke-linejoin="round" stroke-opacity="1.0" stroke-width="3.0" />
            <path d=" M 1045.313, 144.914 1055.307, 145.235 1065.302, 145.555 1075.297, 145.876 1085.292, 146.196 1095.287, 146.517 1105.282, 146.837 1115.277, 147.158 1125.272, 147.479 1135.266, 147.799 1145.261, 148.120 1155.256, 148.440 1165.251, 148.761 1175.246, 149.081 1185.241, 149.402 1195.236, 149.722 1205.230, 150.043 1215.225, 150.363 1225.220, 150.684 1235.215, 151.005 1245.210, 151.325 1255.205, 151.646 1265.200, 151.966 1275.194, 152.287 1285.189, 152.607 1295.184, 152.928 1305.179, 153.248 1315.174, 153.569 1325.169, 153.889 1335.164, 154.210 1345.159, 154.531 1355.153, 154.851 1365.148, 155.172 1375.143, 155.492 1385.138, 155.813 1395.133, 156.133 1405.128, 156.454 1416.414, 156.816 1416.135, 163.770 " fill="none" stroke="rgb(0, 0, 0)" stroke-linecap="butt" stroke-linejoin="round" stroke-opacity="1.0" stroke-width="3.0" />
            <path d=" M 1072.646, 221.313 1072.640, 221.513 1072.307, 221.707 1071.660, 221.889 1070.723, 222.051 1069.532, 222.187 1068.133, 222.291 1066.605, 222.358 1066.580, 222.359 1064.933, 222.390 1063.255, 222.381 1061.613, 222.333 1060.069, 222.247 1058.683, 222.128 1057.509, 221.980 1057.494, 221.977 1056.694, 221.828 1056.592, 221.808 1055.966, 221.620 1055.656, 221.422 " fill="none" stroke="rgb(0, 0, 0)" stroke-linecap="butt" stroke-linejoin="round" stroke-opacity="1.0" stroke-width="3.0" />
            <path d=" M 1072.646, 221.313 1072.673, 218.659 1072.772, 208.659 1072.872, 198.660 1072.971, 188.660 1073.071, 178.661 1073.171, 168.661 1073.270, 158.662 1073.332, 152.486 " fill="none" stroke="rgb(0, 0, 0)" stroke-linecap="butt" stroke-linejoin="round" stroke-opacity="1.0" stroke-width="3.0" />
            <path d=" M 1074.769, 244.693 1074.330, 244.687 1073.956, 245.028 1073.660, 245.705 1073.455, 246.692 1073.451, 246.735 1073.142, 247.828 1072.902, 249.030 1072.858, 249.143 1072.722, 249.553 " fill="none" stroke="rgb(0, 0, 0)" stroke-linecap="butt" stroke-linejoin="round" stroke-opacity="1.0" stroke-width="3.0" />
            <path d=" M 1298.283, 394.903 1306.871, 400.028 1315.458, 405.152 1324.046, 410.276 1332.633, 415.400 1341.221, 420.524 1342.593, 421.343 " fill="none" stroke="rgb(0, 0, 0)" stroke-linecap="butt" stroke-linejoin="round" stroke-opacity="1.0" stroke-width="3.0" />
            <path d=" M 1080.341, 248.017 1080.464, 247.717 1080.856, 245.719 1080.865, 243.666 1080.490, 241.638 1079.744, 239.713 1078.657, 237.965 1077.271, 236.461 1075.638, 235.260 1073.823, 234.407 1072.876, 234.176 " fill="none" stroke="rgb(0, 0, 0)" stroke-linecap="butt" stroke-linejoin="round" stroke-opacity="1.0" stroke-width="3.0" />
            <path d=" M 1072.858, 249.143 1072.722, 249.553 " fill="none" stroke="rgb(0, 0, 0)" stroke-linecap="butt" stroke-linejoin="round" stroke-opacity="1.0" stroke-width="3.0" />
            <path d=" M 1073.956, 245.028 1073.660, 245.705 " fill="none" stroke="rgb(0, 0, 0)" stroke-linecap="butt" stroke-linejoin="round" stroke-opacity="1.0" stroke-width="3.0" />
            <path d=" M 1359.340, 403.821 1358.701, 403.591 1356.774, 403.066 1355.173, 402.826 1353.959, 402.878 1353.181, 403.222 1349.916, 408.810 " fill="none" stroke="rgb(0, 0, 0)" stroke-linecap="butt" stroke-linejoin="round" stroke-opacity="1.0" stroke-width="3.0" />
            <path d=" M 1342.593, 421.343 1339.330, 426.927 1339.006, 427.571 1339.160, 428.470 1339.787, 429.591 1340.864, 430.890 1342.351, 432.318 1342.549, 432.479 1344.191, 433.819 1346.313, 435.336 1348.635, 436.810 1351.066, 438.182 1353.511, 439.399 1355.473, 440.241 1355.876, 440.414 1358.068, 441.188 1360.002, 441.690 1361.603, 441.902 1362.811, 441.817 1363.579, 441.437 1368.658, 432.823 1373.737, 424.209 1377.549, 417.742 1377.837, 417.105 1377.646, 416.214 1376.983, 415.105 1375.876, 413.821 1374.368, 412.410 1372.650, 411.034 " fill="none" stroke="rgb(0, 0, 0)" stroke-linecap="butt" stroke-linejoin="round" stroke-opacity="1.0" stroke-width="3.0" />
            <path d=" M 1377.549, 417.742 1376.791, 418.101 1375.590, 418.167 1373.993, 417.936 1372.061, 417.417 1371.003, 417.037 1369.867, 416.629 1369.674, 416.546 1367.497, 415.603 1365.044, 414.379 1362.603, 413.004 1360.268, 411.531 1358.132, 410.019 1356.773, 408.926 1356.659, 408.835 1356.276, 408.527 1354.773, 407.111 1353.680, 405.827 1353.037, 404.725 1352.869, 403.845 1353.181, 403.222 " fill="none" stroke="rgb(0, 0, 0)" stroke-linecap="butt" stroke-linejoin="round" stroke-opacity="1.0" stroke-width="3.0" />
            <path d=" M 1371.771, 412.796 1372.076, 413.152 1372.457, 413.792 1372.564, 414.305 1372.395, 414.671 1371.955, 414.877 1371.260, 414.913 1370.645, 414.823 1370.337, 414.778 1369.221, 414.478 1367.956, 414.023 1366.589, 413.431 1365.175, 412.725 1363.768, 411.933 1362.422, 411.084 1361.190, 410.212 1360.118, 409.351 1359.250, 408.534 " fill="none" stroke="rgb(0, 0, 0)" stroke-linecap="butt" stroke-linejoin="round" stroke-opacity="1.0" stroke-width="3.0" />
            <path d=" M 1210.622, 342.502 1209.841, 343.551 1208.738, 344.895 1207.802, 345.885 1207.069, 346.481 1206.566, 346.662 1206.314, 346.417 1206.323, 345.756 1206.594, 344.703 1207.117, 343.298 1207.871, 341.594 1208.114, 341.102 1208.152, 341.025 1208.829, 339.656 1209.953, 337.560 1211.200, 335.388 1212.522, 333.222 1213.866, 331.149 1215.181, 329.249 1215.596, 328.693 1215.648, 328.624 1216.415, 327.595 1217.521, 326.252 1218.455, 325.271 1219.183, 324.689 1219.675, 324.528 1219.915, 324.793 1219.893, 325.472 1219.612, 326.539 1219.082, 327.951 1218.324, 329.655 1218.069, 330.168 " fill="none" stroke="rgb(0, 0, 0)" stroke-linecap="butt" stroke-linejoin="round" stroke-opacity="1.0" stroke-width="3.0" />
            <path d=" M 1219.675, 324.528 1211.085, 319.408 1202.495, 314.289 1197.884, 311.541 1197.373, 311.690 1196.629, 312.260 1195.680, 313.230 1194.563, 314.564 1193.739, 315.655 1193.321, 316.209 1192.002, 318.102 1190.658, 320.170 1189.340, 322.333 1188.101, 324.505 1186.988, 326.603 1186.321, 327.975 1186.044, 328.545 1185.306, 330.255 1184.802, 331.669 1184.551, 332.731 1184.562, 333.403 1184.833, 333.659 1193.415, 338.793 1201.996, 343.927 1206.566, 346.662 " fill="none" stroke="rgb(0, 0, 0)" stroke-linecap="butt" stroke-linejoin="round" stroke-opacity="1.0" stroke-width="3.0" />
            <path d=" M 1209.403, 341.872 1209.261, 341.731 1209.262, 341.689 1209.268, 341.354 1209.423, 340.756 1209.720, 339.959 1210.148, 338.993 1210.691, 337.896 1211.327, 336.711 1212.032, 335.482 1212.780, 334.257 1213.540, 333.085 1214.284, 332.010 1214.982, 331.073 1215.608, 330.312 1216.138, 329.755 1216.551, 329.423 1216.724, 329.365 1216.831, 329.330 " fill="none" stroke="rgb(0, 0, 0)" stroke-linecap="butt" stroke-linejoin="round" stroke-opacity="1.0" stroke-width="3.0" />
            <path d=" M 1216.831, 329.330 1216.969, 329.477 1216.968, 329.511 " fill="none" stroke="rgb(0, 0, 0)" stroke-linecap="butt" stroke-linejoin="round" stroke-opacity="1.0" stroke-width="3.0" />
            <path d=" M 1056.244, 151.924 1056.159, 161.923 1056.075, 171.923 1055.990, 181.923 1055.906, 191.922 1055.821, 201.922 1055.736, 211.922 1055.682, 218.390 1055.656, 221.422 " fill="none" stroke="rgb(0, 0, 0)" stroke-linecap="butt" stroke-linejoin="round" stroke-opacity="1.0" stroke-width="3.0" />
            <path d=" M 1070.573, 570.671 1070.674, 560.672 1070.775, 550.672 1070.876, 540.673 1070.977, 530.673 1071.077, 520.674 1071.178, 510.674 1071.279, 500.675 1071.380, 490.675 1071.481, 480.676 1071.582, 470.676 1071.683, 460.677 1071.784, 450.677 1071.885, 440.678 1071.985, 430.678 1072.086, 420.679 1072.187, 410.679 1072.288, 400.680 1072.389, 390.680 1072.490, 380.681 1072.591, 370.681 1072.692, 360.682 1072.793, 350.682 1072.894, 340.683 1072.994, 330.683 1073.095, 320.684 1073.196, 310.684 1073.297, 300.685 1073.398, 290.685 1073.499, 280.686 1073.560, 274.664 " fill="none" stroke="rgb(0, 0, 0)" stroke-linecap="butt" stroke-linejoin="round" stroke-opacity="1.0" stroke-width="3.0" />
            <path d=" M 1072.564, 265.435 1082.484, 265.904 " fill="none" stroke="rgb(0, 0, 0)" stroke-linecap="butt" stroke-linejoin="round" stroke-opacity="1.0" stroke-width="3.0" />
            <path d=" M 1083.724, 266.645 1074.579, 270.691 1073.595, 271.126 1072.502, 271.610 " fill="none" stroke="rgb(0, 0, 0)" stroke-linecap="butt" stroke-linejoin="round" stroke-opacity="1.0" stroke-width="3.0" />
            <path d=" M 1085.286, 250.966 1085.397, 240.967 1085.508, 230.968 1085.595, 223.152 " fill="none" stroke="rgb(0, 0, 0)" stroke-linecap="butt" stroke-linejoin="round" stroke-opacity="1.0" stroke-width="3.0" />
            <path d=" M 1209.507, 341.835 1209.403, 341.872 " fill="none" stroke="rgb(0, 0, 0)" stroke-linecap="butt" stroke-linejoin="round" stroke-opacity="1.0" stroke-width="3.0" />
            <path d=" M 1209.262, 341.689 1209.507, 341.835 1210.622, 342.502 1219.205, 347.633 1227.789, 352.763 1236.372, 357.894 1244.955, 363.025 1253.539, 368.156 1262.122, 373.287 1270.705, 378.418 1279.289, 383.549 1287.872, 388.680 1296.455, 393.811 1298.283, 394.903 " fill="none" stroke="rgb(0, 0, 0)" stroke-linecap="butt" stroke-linejoin="round" stroke-opacity="1.0" stroke-width="3.0" />
            <path d=" M 1072.618, 260.006 1081.201, 265.137 1082.484, 265.904 1083.724, 266.645 1086.106, 268.069 1094.689, 273.200 1103.272, 278.331 1111.856, 283.462 1120.439, 288.593 1129.022, 293.724 1137.606, 298.854 1146.189, 303.985 1154.772, 309.116 1163.356, 314.247 1171.939, 319.378 1180.522, 324.509 1186.321, 327.975 " fill="none" stroke="rgb(0, 0, 0)" stroke-linecap="butt" stroke-linejoin="round" stroke-opacity="1.0" stroke-width="3.0" />
            <path d=" M 1193.739, 315.655 1185.151, 310.533 1176.562, 305.410 1167.974, 300.287 1159.386, 295.165 1150.797, 290.042 1142.209, 284.919 1133.621, 279.797 1125.033, 274.674 1116.444, 269.552 1107.856, 264.429 1099.268, 259.306 1090.680, 254.184 1086.291, 251.566 1085.286, 250.966 1080.341, 248.017 1074.769, 244.693 " fill="none" stroke="rgb(0, 0, 0)" stroke-linecap="butt" stroke-linejoin="round" stroke-opacity="1.0" stroke-width="3.0" />
            <path d=" M 1349.916, 408.810 1341.327, 403.688 1332.739, 398.565 1324.151, 393.442 1315.562, 388.320 1306.974, 383.197 1298.386, 378.074 1289.798, 372.952 1281.209, 367.829 1272.621, 362.706 1264.033, 357.584 1255.445, 352.461 1246.856, 347.338 1238.268, 342.216 1229.680, 337.093 1221.091, 331.970 1218.069, 330.168 1216.968, 329.511 1216.724, 329.365 " fill="none" stroke="rgb(0, 0, 0)" stroke-linecap="butt" stroke-linejoin="round" stroke-opacity="1.0" stroke-width="3.0" />
            <path d=" M 1365.499, 391.414 1361.053, 400.371 1359.340, 403.821 1358.331, 405.853 " fill="none" stroke="rgb(0, 0, 0)" stroke-linecap="butt" stroke-linejoin="round" stroke-opacity="1.0" stroke-width="3.0" />
        </g>
    </g>
</svg>
