<?xml version='1.0' encoding='ascii'?>
<svg xmlns="http://www.w3.org/2000/svg" height="1080" version="1.1" width="1920">
    <g id="View Layer_LineSet" inkscape:groupmode="lineset" inkscape:label="View Layer_LineSet" xmlns:inkscape="http://www.inkscape.org/namespaces/inkscape">
        <g id="strokes" inkscape:groupmode="layer" inkscape:label="strokes" xmlns:inkscape="http://www.inkscape.org/namespaces/inkscape">
            <path d=" M 1272.168, 269.598 1272.168, 259.598 1272.168, 249.598 1272.168, 239.598 1272.168, 229.598 1272.168, 219.598 1272.168, 209.598 1272.168, 199.598 1272.168, 189.598 1272.168, 179.598 1272.168, 169.598 1272.168, 159.598 1272.168, 149.598 1272.168, 139.598 1272.168, 129.598 1272.168, 119.598 1272.168, 109.598 1272.168, 107.100 1263.223, 102.628 1254.279, 98.155 1245.335, 93.683 1236.391, 89.211 1227.446, 84.739 1218.502, 80.267 1209.558, 75.795 1200.614, 71.323 1195.150, 68.591 1186.206, 73.063 1177.261, 77.535 1168.317, 82.007 1159.373, 86.479 1150.429, 90.951 1141.484, 95.424 1132.540, 99.896 1123.596, 104.368 1114.651, 108.840 1105.707, 113.312 1096.763, 117.784 1087.819, 122.256 1078.874, 126.729 1069.930, 131.201 1060.986, 135.673 1052.042, 140.145 1043.097, 144.617 1034.153, 149.089 1025.209, 153.561 1016.264, 158.034 1007.320, 162.506 998.376, 166.978 989.432, 171.450 980.487, 175.922 971.543, 180.394 962.599, 184.866 953.655, 189.338 944.710, 193.811 935.766, 198.283 926.822, 202.755 917.878, 207.227 908.933, 211.699 899.989, 216.171 891.045, 220.643 882.100, 225.116 873.156, 229.588 864.212, 234.060 855.268, 238.532 846.323, 243.004 837.379, 247.476 828.435, 251.948 819.490, 256.420 810.546, 260.893 801.602, 265.365 792.658, 269.837 783.713, 274.309 774.769, 278.781 765.825, 283.253 756.881, 287.725 747.936, 292.198 738.992, 296.670 730.048, 301.142 721.104, 305.614 712.287, 310.022 712.287, 320.022 712.287, 330.022 712.287, 340.022 712.287, 350.022 712.287, 360.022 712.287, 370.022 712.287, 380.022 712.287, 390.022 712.287, 400.022 712.287, 410.022 712.287, 420.022 712.287, 430.022 712.287, 440.022 712.287, 450.022 712.287, 460.022 712.287, 470.022 712.287, 480.022 712.287, 490.022 712.287, 500.022 712.287, 510.022 712.287, 520.022 712.287, 530.022 712.287, 540.022 712.287, 550.022 712.287, 560.022 712.287, 570.022 712.287, 580.022 712.287, 590.022 712.287, 600.022 712.287, 610.022 712.287, 620.022 712.287, 630.022 712.287, 640.022 712.287, 650.022 712.287, 660.022 712.287, 670.022 712.287, 680.022 712.287, 690.022 712.287, 698.985 712.287, 708.985 712.287, 717.228 712.287, 727.228 712.287, 737.228 712.287, 738.907 712.287, 748.907 712.287, 758.907 712.287, 768.907 712.287, 778.907 712.287, 788.907 712.287, 798.907 712.287, 808.907 712.287, 818.907 712.287, 828.907 712.287, 838.907 712.287, 848.907 712.287, 858.907 712.287, 868.907 712.287, 878.907 712.287, 888.907 712.287, 898.907 712.287, 901.406 721.232, 905.878 730.176, 910.350 739.120, 914.822 748.064, 919.294 757.009, 923.766 765.953, 928.239 774.897, 932.711 783.841, 937.183 789.305, 939.915 798.249, 935.442 807.194, 930.970 816.138, 926.498 825.082, 922.026 834.026, 917.554 842.971, 913.082 851.915, 908.610 860.859, 904.138 869.803, 899.665 878.748, 895.193 887.692, 890.721 896.636, 886.249 905.581, 881.777 914.525, 877.305 923.469, 872.833 932.413, 868.360 941.358, 863.888 950.302, 859.416 959.246, 854.944 968.190, 850.472 977.135, 846.000 986.079, 841.528 995.023, 837.055 1003.968, 832.583 1012.912, 828.111 1021.856, 823.639 1030.800, 819.167 1039.745, 814.695 1048.689, 810.223 1057.633, 805.751 1066.577, 801.278 1075.522, 796.806 1084.466, 792.334 1093.410, 787.862 1102.354, 783.390 1111.299, 778.918 1120.243, 774.446 1129.187, 769.973 1138.132, 765.501 1147.076, 761.029 1156.020, 756.557 1164.964, 752.085 1173.909, 747.613 1182.853, 743.141 1191.797, 738.668 1200.742, 734.196 1209.686, 729.724 1218.630, 725.252 1227.574, 720.780 1236.519, 716.308 1245.463, 711.836 1254.407, 707.364 1263.351, 702.891 1272.168, 698.483 1272.168, 688.483 1272.168, 678.483 1272.168, 668.483 1272.168, 658.483 1272.168, 648.483 1272.168, 638.483 1272.168, 628.483 1272.168, 618.483 1272.168, 608.483 1272.168, 598.483 1272.168, 588.483 1272.168, 578.483 1272.168, 568.483 1272.168, 558.483 1272.168, 548.483 1272.168, 538.483 1272.168, 528.483 1272.168, 518.483 1272.168, 508.483 1272.168, 498.483 1272.168, 488.483 1272.168, 478.483 1272.168, 468.483 1272.168, 458.483 1272.168, 448.483 1272.168, 438.483 1272.168, 428.483 1272.168, 418.483 1272.168, 408.483 1272.168, 398.483 1272.168, 388.483 1272.168, 378.483 1272.168, 368.483 1272.168, 358.483 1272.168, 348.483 1272.168, 338.483 1272.168, 328.483 1272.168, 318.483 1272.168, 309.520 " fill="none" stroke="rgb(0, 0, 0)" stroke-linecap="butt" stroke-linejoin="round" stroke-opacity="1.0" stroke-width="3.0" />
            <path d=" M 712.287, 310.022 721.232, 314.494 730.176, 318.966 739.120, 323.439 748.064, 327.911 757.009, 332.383 765.953, 336.855 774.897, 341.327 783.841, 345.799 789.305, 348.531 " fill="none" stroke="rgb(0, 0, 0)" stroke-linecap="butt" stroke-linejoin="round" stroke-opacity="1.0" stroke-width="3.0" />
            <path d=" M 789.305, 939.915 789.305, 929.915 789.305, 919.915 789.305, 909.915 789.305, 899.915 789.305, 889.915 789.305, 879.915 789.305, 874.131 789.305, 864.131 789.305, 854.131 789.305, 844.131 789.305, 834.131 789.305, 826.682 789.305, 816.682 789.305, 806.682 789.305, 796.682 789.305, 786.682 789.305, 776.682 789.305, 766.682 789.305, 763.489 789.305, 753.489 789.305, 743.489 789.305, 741.628 789.305, 731.628 789.305, 721.628 789.305, 711.628 789.305, 701.628 789.305, 691.628 789.305, 681.628 789.305, 671.628 789.305, 664.586 789.305, 654.586 789.305, 644.586 789.305, 634.586 789.305, 624.586 789.305, 623.730 789.305, 613.730 789.305, 603.730 789.305, 593.730 789.305, 587.698 789.305, 577.698 789.305, 567.698 789.305, 557.698 789.305, 554.712 789.305, 544.712 789.305, 534.712 789.305, 524.712 789.305, 514.712 789.305, 504.712 789.305, 494.712 789.305, 484.712 789.305, 474.712 789.305, 464.712 789.305, 454.712 789.305, 444.712 789.305, 434.712 789.305, 424.712 789.305, 414.712 789.305, 404.712 789.305, 394.712 789.305, 384.712 789.305, 374.712 789.305, 364.712 789.305, 354.712 789.305, 348.531 798.249, 344.059 807.194, 339.587 816.138, 335.115 825.082, 330.642 834.026, 326.170 842.971, 321.698 851.915, 317.226 860.859, 312.754 869.803, 308.282 878.748, 303.810 887.692, 299.338 896.636, 294.865 905.581, 290.393 914.525, 285.921 923.469, 281.449 932.413, 276.977 941.358, 272.505 950.302, 268.033 959.246, 263.560 968.190, 259.088 977.135, 254.616 986.079, 250.144 995.023, 245.672 1003.968, 241.200 1012.912, 236.728 1021.856, 232.255 1030.800, 227.783 1039.745, 223.311 1048.689, 218.839 1057.633, 214.367 1066.577, 209.895 1075.522, 205.423 1084.466, 200.951 1093.410, 196.478 1102.354, 192.006 1111.299, 187.534 1120.243, 183.062 1129.187, 178.590 1138.132, 174.118 1147.076, 169.646 1156.020, 165.173 1165.581, 160.393 1174.525, 155.921 1183.469, 151.449 1192.414, 146.977 1201.358, 142.505 1206.384, 139.992 1215.328, 135.519 1224.272, 131.047 1233.217, 126.575 1242.161, 122.103 1251.105, 117.631 1260.050, 113.159 1268.994, 108.687 1272.168, 107.100 " fill="none" stroke="rgb(0, 0, 0)" stroke-linecap="butt" stroke-linejoin="round" stroke-opacity="1.0" stroke-width="3.0" />
            <path d=" M 818.874, 888.915 818.874, 878.915 818.874, 868.915 818.874, 858.915 818.874, 848.915 818.874, 848.112 818.874, 838.112 818.874, 828.112 818.874, 818.112 818.874, 811.898 818.874, 801.898 818.874, 791.898 818.874, 781.898 818.874, 771.898 818.874, 761.898 818.874, 751.898 818.874, 748.705 818.874, 738.705 818.874, 734.572 818.874, 724.572 818.874, 714.572 818.874, 704.572 818.874, 694.572 818.874, 686.237 818.874, 676.237 818.874, 666.237 818.874, 663.934 818.874, 655.421 818.874, 649.802 818.874, 639.802 818.874, 629.802 818.874, 619.802 818.874, 609.802 818.874, 606.445 818.874, 596.445 818.874, 594.066 818.874, 584.066 818.874, 574.066 818.874, 564.066 818.874, 554.066 818.874, 544.066 818.874, 534.066 818.874, 530.138 818.874, 520.138 818.874, 510.138 818.874, 500.138 818.874, 499.321 818.874, 489.321 818.874, 479.321 818.874, 469.321 818.874, 459.321 818.874, 449.321 818.874, 439.321 818.874, 429.321 818.874, 419.321 818.874, 409.321 818.874, 399.321 818.874, 389.321 818.874, 379.321 818.874, 369.961 827.818, 365.489 836.763, 361.017 845.707, 356.545 854.651, 352.073 863.596, 347.600 872.540, 343.128 881.484, 338.656 890.428, 334.184 899.373, 329.712 908.317, 325.240 917.261, 320.768 926.205, 316.295 935.150, 311.823 944.094, 307.351 953.038, 302.879 961.982, 298.407 970.927, 293.935 979.871, 289.463 988.815, 284.990 997.760, 280.518 1006.704, 276.046 1015.648, 271.574 1024.592, 267.102 1033.537, 262.630 1042.481, 258.158 1051.425, 253.686 1060.370, 249.213 1069.314, 244.741 1078.258, 240.269 1087.202, 235.797 1096.147, 231.325 1105.091, 226.853 1114.035, 222.381 1122.979, 217.908 1131.924, 213.436 1140.868, 208.964 1149.812, 204.492 1158.756, 200.020 1165.581, 196.608 1174.525, 192.136 1183.469, 187.664 1192.414, 183.191 1195.150, 181.823 1204.094, 177.351 1213.038, 172.879 1221.983, 168.407 1230.927, 163.935 1239.871, 159.463 1242.599, 158.099 " fill="none" stroke="rgb(0, 0, 0)" stroke-linecap="butt" stroke-linejoin="round" stroke-opacity="1.0" stroke-width="3.0" />
            <path d=" M 1242.599, 677.053 1242.599, 667.053 1242.599, 657.053 1242.599, 647.053 1242.599, 637.053 1242.599, 627.053 1242.599, 617.053 1242.599, 607.053 1242.599, 597.053 1242.599, 587.053 1242.599, 577.053 1242.599, 567.053 1242.599, 557.053 1242.599, 547.053 1242.599, 537.053 1242.599, 527.053 1242.599, 517.053 1242.599, 507.053 1242.599, 497.053 1242.599, 487.053 1242.599, 477.053 1242.599, 467.053 1242.599, 457.053 1242.599, 447.053 1242.599, 437.053 1242.599, 427.053 1242.599, 417.053 1242.599, 407.053 1242.599, 397.053 1242.599, 387.053 1242.599, 377.053 1242.599, 364.910 " fill="none" stroke="rgb(0, 0, 0)" stroke-linecap="butt" stroke-linejoin="round" stroke-opacity="1.0" stroke-width="3.0" />
            <path d=" M 1165.581, 638.544 1174.525, 643.016 1183.469, 647.489 1192.414, 651.961 1201.358, 656.433 1210.302, 660.905 1219.246, 665.377 1228.191, 669.849 1237.135, 674.321 1242.599, 677.053 1233.654, 681.525 1224.710, 685.997 1215.766, 690.470 1206.821, 694.942 1197.877, 699.414 1188.933, 703.886 1179.989, 708.358 1171.044, 712.830 1162.100, 717.302 1153.156, 721.775 1144.212, 726.247 1135.267, 730.719 1126.323, 735.191 1117.379, 739.663 1108.434, 744.135 1099.490, 748.607 1090.546, 753.079 1081.602, 757.552 1072.657, 762.024 1063.713, 766.496 1054.769, 770.968 1045.825, 775.440 1036.880, 779.912 1027.936, 784.384 1018.992, 788.857 1010.047, 793.329 1001.103, 797.801 992.159, 802.273 983.215, 806.745 974.270, 811.217 965.326, 815.689 956.382, 820.162 947.438, 824.634 938.493, 829.106 929.549, 833.578 920.605, 838.050 911.660, 842.522 902.716, 846.994 893.772, 851.466 884.828, 855.939 875.883, 860.411 866.939, 864.883 857.995, 869.355 849.051, 873.827 840.106, 878.299 831.162, 882.771 818.874, 888.915 " fill="none" stroke="rgb(0, 0, 0)" stroke-linecap="butt" stroke-linejoin="round" stroke-opacity="1.0" stroke-width="3.0" />
            <path d=" M 1165.581, 509.184 1165.581, 519.184 1165.581, 529.184 1165.581, 539.184 1165.581, 549.184 1165.581, 559.184 1165.581, 569.184 1165.581, 579.184 1165.581, 589.184 1165.581, 599.184 1165.581, 609.184 1165.581, 619.184 1165.581, 629.184 1165.581, 638.544 1156.636, 643.016 1147.692, 647.489 1138.748, 651.961 1129.804, 656.433 1120.859, 660.905 1111.915, 665.377 1102.971, 669.849 1094.027, 674.321 1085.082, 678.794 1076.138, 683.266 1067.194, 687.738 1058.250, 692.210 1049.305, 696.682 1040.361, 701.154 1031.417, 705.626 1022.472, 710.098 1013.528, 714.571 1004.584, 719.043 995.640, 723.515 986.695, 727.987 977.751, 732.459 968.807, 736.931 959.863, 741.403 950.918, 745.876 941.974, 750.348 933.030, 754.820 924.085, 759.292 915.141, 763.764 906.197, 768.236 897.253, 772.708 888.308, 777.181 879.364, 781.653 870.420, 786.125 861.476, 790.597 852.531, 795.069 843.587, 799.541 834.643, 804.013 825.698, 808.485 818.874, 811.898 " fill="none" stroke="rgb(0, 0, 0)" stroke-linecap="butt" stroke-linejoin="round" stroke-opacity="1.0" stroke-width="3.0" />
            <path d=" M 926.248, 695.018 935.192, 690.546 944.137, 686.073 953.081, 681.601 962.025, 677.129 970.969, 672.657 979.914, 668.185 988.858, 663.713 997.802, 659.241 1006.747, 654.769 1015.691, 650.296 1024.635, 645.824 1033.579, 641.352 1042.524, 636.880 1051.468, 632.408 1060.412, 627.936 1069.356, 623.464 1078.301, 618.991 1087.245, 614.519 1096.189, 610.047 1105.134, 605.575 1114.078, 601.103 1117.398, 599.443 1122.107, 590.621 1126.816, 581.800 1131.526, 572.978 1136.235, 564.156 1140.944, 555.334 1145.654, 546.513 1150.363, 537.691 1155.072, 528.869 1159.781, 520.048 1164.491, 511.226 1165.581, 509.184 1170.290, 500.362 1174.999, 491.541 1179.709, 482.719 1184.418, 473.897 1189.127, 465.075 1193.837, 456.254 1194.806, 454.438 1195.150, 453.794 1199.218, 446.172 1203.631, 437.907 1208.043, 429.641 1212.752, 420.820 1217.462, 411.998 1222.171, 403.176 1226.880, 394.354 1231.590, 385.533 1236.299, 376.711 1241.008, 367.889 1242.599, 364.910 1247.308, 356.089 1252.017, 347.267 1256.726, 338.445 1261.436, 329.624 1266.145, 320.802 1270.854, 311.980 1272.168, 309.520 1276.877, 300.698 1281.586, 291.877 1285.452, 284.636 1278.831, 277.141 1272.466, 269.936 1272.168, 269.598 1265.547, 262.103 1259.481, 255.236 1252.860, 247.741 1246.495, 240.536 1242.599, 236.124 1235.978, 228.630 1233.510, 225.836 1224.566, 230.308 1215.622, 234.780 1206.677, 239.252 1197.733, 243.725 1195.150, 245.016 1186.206, 249.488 1177.261, 253.960 1168.317, 258.432 1165.581, 259.801 1156.636, 264.273 1147.692, 268.745 1144.254, 270.464 1135.310, 274.936 1126.366, 279.408 1117.421, 283.880 1108.477, 288.352 1106.919, 289.132 1097.975, 293.604 1089.031, 298.076 1080.086, 302.548 1071.142, 307.020 1062.198, 311.492 1058.452, 313.365 1058.400, 313.391 1058.261, 313.460 1058.207, 313.488 1049.263, 317.960 1040.318, 322.432 1031.374, 326.904 1022.430, 331.376 1013.485, 335.848 1004.541, 340.320 995.597, 344.793 986.653, 349.265 977.708, 353.737 968.764, 358.209 959.820, 362.681 950.876, 367.153 941.931, 371.625 932.987, 376.098 924.043, 380.570 915.098, 385.042 906.154, 389.514 897.210, 393.986 888.266, 398.458 879.321, 402.930 870.377, 407.402 867.057, 409.062 862.348, 417.884 857.639, 426.706 852.929, 435.528 848.220, 444.349 843.511, 453.171 838.801, 461.993 834.092, 470.814 829.383, 479.636 824.674, 488.458 819.964, 497.279 818.874, 499.321 " fill="none" stroke="rgb(0, 0, 0)" stroke-linecap="butt" stroke-linejoin="round" stroke-opacity="1.0" stroke-width="3.0" />
            <path d=" M 867.057, 409.062 873.678, 416.557 877.235, 420.584 880.043, 423.762 886.663, 431.257 893.028, 438.462 899.648, 445.957 906.013, 453.162 912.634, 460.657 918.999, 467.862 " fill="none" stroke="rgb(0, 0, 0)" stroke-linecap="butt" stroke-linejoin="round" stroke-opacity="1.0" stroke-width="3.0" />
            <path d=" M 1285.452, 284.636 1276.507, 289.108 1272.168, 291.278 1263.223, 295.750 1254.279, 300.222 1245.335, 304.694 1244.061, 305.331 1235.116, 309.804 1226.172, 314.276 1217.228, 318.748 1208.283, 323.220 1199.339, 327.692 1190.395, 332.164 1181.451, 336.636 1172.506, 341.109 1165.581, 344.571 1156.636, 349.043 1149.340, 352.692 1140.395, 357.164 1131.451, 361.636 1122.507, 366.108 1113.563, 370.580 1104.618, 375.053 1095.674, 379.525 1093.788, 380.468 1093.464, 380.630 1084.520, 385.102 1075.575, 389.574 1066.631, 394.046 1062.653, 396.035 1053.709, 400.507 1048.940, 402.892 1039.995, 407.364 1031.051, 411.836 1024.252, 415.236 1015.308, 419.708 1006.364, 424.180 997.419, 428.652 997.080, 428.822 996.477, 429.123 987.533, 433.595 978.588, 438.068 969.644, 442.540 960.700, 447.012 951.756, 451.484 942.811, 455.956 933.867, 460.428 924.923, 464.900 918.999, 467.862 914.289, 476.684 909.580, 485.506 904.871, 494.328 900.161, 503.149 895.452, 511.971 890.743, 520.793 886.034, 529.614 881.324, 538.436 876.615, 547.258 873.861, 552.417 869.152, 561.238 864.442, 570.060 859.733, 578.882 855.024, 587.703 850.314, 596.525 845.605, 605.347 841.590, 612.868 837.178, 621.133 832.766, 629.399 828.353, 637.664 823.644, 646.486 822.966, 647.756 818.874, 655.421 " fill="none" stroke="rgb(0, 0, 0)" stroke-linecap="butt" stroke-linejoin="round" stroke-opacity="1.0" stroke-width="3.0" />
            <path d=" M 818.874, 686.237 823.583, 677.415 828.293, 668.594 833.002, 659.772 835.115, 655.814 839.825, 646.992 844.534, 638.170 845.406, 636.536 850.116, 627.714 850.794, 626.444 855.206, 618.178 859.618, 609.913 864.031, 601.647 868.740, 592.826 873.449, 584.004 878.159, 575.182 882.868, 566.361 883.748, 564.712 888.458, 555.890 893.167, 547.068 897.876, 538.247 901.789, 530.918 906.498, 522.096 911.207, 513.274 915.916, 504.453 920.626, 495.631 925.335, 486.809 930.044, 477.987 931.148, 475.920 940.092, 471.448 949.037, 466.976 957.981, 462.504 966.925, 458.031 975.869, 453.559 984.814, 449.087 986.186, 448.401 986.240, 448.374 986.857, 448.066 986.909, 448.040 995.853, 443.568 1004.797, 439.096 1013.741, 434.623 1014.029, 434.479 1020.359, 431.315 1029.303, 426.842 1038.247, 422.370 1047.192, 417.898 1055.598, 413.695 1061.849, 410.569 1070.793, 406.097 1079.738, 401.625 1083.118, 399.935 1083.173, 399.908 1083.513, 399.738 1083.565, 399.712 1092.509, 395.240 1101.453, 390.767 1110.398, 386.295 1119.342, 381.823 1128.286, 377.351 1137.230, 372.879 1139.049, 371.970 1147.993, 367.498 1156.937, 363.026 1161.489, 360.750 1165.581, 358.704 1174.525, 354.232 1183.469, 349.759 1192.414, 345.287 1195.150, 343.919 1204.094, 339.447 1213.038, 334.975 1221.983, 330.503 1230.927, 326.031 1239.871, 321.558 1242.599, 320.195 1251.543, 315.723 1252.720, 315.134 " fill="none" stroke="rgb(0, 0, 0)" stroke-linecap="butt" stroke-linejoin="round" stroke-opacity="1.0" stroke-width="3.0" />
            <path d=" M 1139.049, 371.970 1134.339, 380.791 1133.661, 382.062 1129.249, 390.327 1124.837, 398.593 1120.424, 406.858 1115.715, 415.680 1111.005, 424.501 1106.296, 433.323 1101.587, 442.145 1100.707, 443.794 " fill="none" stroke="rgb(0, 0, 0)" stroke-linecap="butt" stroke-linejoin="round" stroke-opacity="1.0" stroke-width="3.0" />
            <path d=" M 712.287, 698.985 707.578, 707.807 702.869, 716.629 699.003, 723.869 705.624, 731.364 711.989, 738.569 712.287, 738.907 " fill="none" stroke="rgb(0, 0, 0)" stroke-linecap="butt" stroke-linejoin="round" stroke-opacity="1.0" stroke-width="3.0" />
            <path d=" M 1252.720, 315.134 1248.011, 323.956 1243.301, 332.778 1238.592, 341.599 1233.883, 350.421 1229.173, 359.243 1224.464, 368.064 1219.755, 376.886 1215.045, 385.708 1211.065, 393.165 1206.355, 401.987 1201.646, 410.808 1196.937, 419.630 1196.730, 420.018 1192.020, 428.840 1187.311, 437.661 1185.603, 440.862 1181.190, 449.127 1176.778, 457.392 1172.365, 465.658 1167.656, 474.480 1165.581, 478.367 1160.871, 487.189 1156.162, 496.011 1151.453, 504.833 1146.744, 513.654 1142.034, 522.476 1137.325, 531.298 1132.616, 540.119 1127.762, 549.212 " fill="none" stroke="rgb(0, 0, 0)" stroke-linecap="butt" stroke-linejoin="round" stroke-opacity="1.0" stroke-width="3.0" />
            <path d=" M 818.874, 594.066 819.227, 594.679 820.297, 603.779 818.874, 606.445 " fill="none" stroke="rgb(0, 0, 0)" stroke-linecap="butt" stroke-linejoin="round" stroke-opacity="1.0" stroke-width="3.0" />
            <path d=" M 1016.764, 525.459 1016.310, 525.217 1007.483, 520.517 1002.931, 518.093 994.104, 513.393 989.098, 510.728 980.272, 506.028 975.265, 503.362 966.439, 498.662 961.432, 495.997 " fill="none" stroke="rgb(0, 0, 0)" stroke-linecap="butt" stroke-linejoin="round" stroke-opacity="1.0" stroke-width="3.0" />
            <path d=" M 986.909, 448.040 982.217, 456.871 977.526, 465.702 972.834, 474.533 968.143, 483.365 963.451, 492.196 961.432, 495.997 956.723, 504.818 952.014, 513.640 947.305, 522.462 942.595, 531.283 937.886, 540.105 933.177, 548.927 928.467, 557.748 923.758, 566.570 919.049, 575.392 914.339, 584.214 911.243, 590.013 906.534, 598.835 901.825, 607.657 901.337, 608.570 896.628, 617.392 891.918, 626.214 887.209, 635.035 882.500, 643.857 877.790, 652.679 873.081, 661.501 868.372, 670.322 863.663, 679.144 858.953, 687.966 854.244, 696.787 850.011, 704.718 845.301, 713.539 840.592, 722.361 835.883, 731.183 833.987, 734.733 " fill="none" stroke="rgb(0, 0, 0)" stroke-linecap="butt" stroke-linejoin="round" stroke-opacity="1.0" stroke-width="3.0" />
            <path d=" M 910.972, 589.816 906.280, 598.647 906.105, 598.978 902.594, 605.586 900.890, 608.794 899.084, 612.194 895.573, 618.802 890.882, 627.633 890.667, 628.037 885.976, 636.869 881.284, 645.700 876.593, 654.531 871.902, 663.362 867.210, 672.194 862.519, 681.025 857.827, 689.856 853.136, 698.687 848.445, 707.519 843.753, 716.350 839.570, 724.225 834.878, 733.056 833.987, 734.733 840.201, 738.041 847.820, 742.099 856.647, 746.798 861.653, 749.464 870.480, 754.164 875.486, 756.830 884.313, 761.530 889.319, 764.195 894.028, 755.373 898.738, 746.552 903.447, 737.730 908.156, 728.908 912.866, 720.087 917.575, 711.265 922.284, 702.443 926.248, 695.018 930.957, 686.196 935.667, 677.374 936.539, 675.740 941.249, 666.918 945.958, 658.096 950.667, 649.275 955.376, 640.453 960.086, 631.631 964.795, 622.810 966.599, 619.430 971.309, 610.608 976.018, 601.786 980.727, 592.965 984.658, 585.601 987.978, 579.382 992.687, 570.560 997.397, 561.739 998.269, 560.104 1002.978, 551.283 1007.688, 542.461 1012.397, 533.639 1016.764, 525.459 1021.456, 516.627 1026.147, 507.796 1030.838, 498.965 1035.530, 490.134 1040.221, 481.302 1044.913, 472.471 1049.604, 463.640 1054.295, 454.809 1055.498, 452.545 1060.189, 443.714 1064.881, 434.883 1069.572, 426.051 1073.483, 418.689 1078.175, 409.858 1078.350, 409.528 1081.861, 402.920 1083.565, 399.712 " fill="none" stroke="rgb(0, 0, 0)" stroke-linecap="butt" stroke-linejoin="round" stroke-opacity="1.0" stroke-width="3.0" />
            <path d=" M 986.857, 448.066 982.165, 456.897 977.474, 465.728 972.782, 474.559 968.145, 483.289 967.732, 484.066 963.041, 492.897 961.816, 495.203 957.106, 504.025 952.397, 512.847 947.688, 521.669 942.978, 530.490 938.269, 539.312 933.560, 548.134 929.263, 556.182 924.554, 565.004 919.845, 573.826 915.135, 582.648 911.214, 589.992 906.505, 598.814 901.796, 607.636 901.282, 608.598 896.573, 617.419 891.864, 626.241 890.991, 627.876 886.282, 636.697 881.573, 645.519 876.863, 654.341 872.154, 663.162 867.445, 671.984 862.735, 680.806 858.026, 689.628 853.317, 698.449 849.979, 704.701 " fill="none" stroke="rgb(0, 0, 0)" stroke-linecap="butt" stroke-linejoin="round" stroke-opacity="1.0" stroke-width="3.0" />
            <path d=" M 1144.254, 270.464 1136.635, 266.407 1127.808, 261.707 1122.802, 259.041 1113.975, 254.341 1108.969, 251.676 1100.142, 246.976 1095.136, 244.310 1090.427, 253.132 1085.717, 261.954 1081.008, 270.775 1076.299, 279.597 1071.589, 288.419 1066.880, 297.240 1062.171, 306.062 1058.207, 313.488 " fill="none" stroke="rgb(0, 0, 0)" stroke-linecap="butt" stroke-linejoin="round" stroke-opacity="1.0" stroke-width="3.0" />
            <path d=" M 1079.144, 274.342 1074.453, 283.174 1069.761, 292.005 1065.070, 300.836 1060.378, 309.667 1058.400, 313.391 " fill="none" stroke="rgb(0, 0, 0)" stroke-linecap="butt" stroke-linejoin="round" stroke-opacity="1.0" stroke-width="3.0" />
            <path d=" M 910.999, 589.836 910.399, 590.966 906.888, 597.574 903.378, 604.183 900.942, 608.768 896.251, 617.599 891.559, 626.430 886.868, 635.262 882.176, 644.093 877.485, 652.924 872.793, 661.755 868.102, 670.586 863.411, 679.418 858.719, 688.249 854.028, 697.080 849.979, 704.701 " fill="none" stroke="rgb(0, 0, 0)" stroke-linecap="butt" stroke-linejoin="round" stroke-opacity="1.0" stroke-width="3.0" />
            <path d=" M 1055.498, 452.545 1058.148, 454.467 1065.813, 460.890 1068.508, 463.148 1075.691, 470.105 1078.046, 472.387 1082.666, 477.588 1086.672, 482.096 1092.705, 490.072 1094.301, 492.182 1099.649, 500.632 1100.861, 502.547 1105.437, 511.439 1106.288, 513.092 1109.996, 522.379 1110.530, 523.714 1113.266, 533.332 1113.545, 534.312 1115.204, 544.174 1115.306, 544.783 1115.783, 554.772 1115.795, 555.028 1115.007, 564.946 1112.951, 574.442 1109.645, 583.426 1107.220, 587.921 1105.121, 591.810 1099.424, 599.514 1092.608, 606.464 1084.739, 612.592 1076.138, 617.694 1075.891, 617.840 1066.749, 621.893 1066.152, 622.158 1056.621, 625.183 1055.614, 625.502 1045.824, 627.541 1044.379, 627.842 1034.440, 628.946 1032.555, 629.155 1029.577, 629.221 1020.257, 629.428 1010.275, 628.821 1007.601, 628.658 997.698, 627.272 994.711, 626.854 984.939, 624.732 981.711, 624.031 972.116, 621.214 968.725, 620.219 966.599, 619.430 " fill="none" stroke="rgb(0, 0, 0)" stroke-linecap="butt" stroke-linejoin="round" stroke-opacity="1.0" stroke-width="3.0" />
            <path d=" M 1109.645, 583.426 1114.336, 574.595 1119.028, 565.764 1123.719, 556.932 1127.630, 549.570 1127.762, 549.212 1130.936, 540.586 1132.993, 531.090 1133.780, 521.172 1133.304, 511.183 1133.292, 510.927 1131.633, 501.066 1131.531, 500.456 1128.794, 490.838 1128.515, 489.858 1124.806, 480.571 1124.273, 479.236 1119.697, 470.344 1118.846, 468.692 1113.499, 460.242 1112.287, 458.327 1110.594, 456.089 1104.657, 448.241 1100.707, 443.794 1096.032, 438.531 1088.849, 431.574 1086.493, 429.292 1078.828, 422.870 1076.133, 420.612 1073.483, 418.689 " fill="none" stroke="rgb(0, 0, 0)" stroke-linecap="butt" stroke-linejoin="round" stroke-opacity="1.0" stroke-width="3.0" />
            <path d=" M 883.748, 564.712 888.423, 569.974 895.606, 576.931 897.961, 579.213 905.626, 585.636 908.321, 587.894 910.972, 589.816 910.999, 589.836 911.214, 589.992 " fill="none" stroke="rgb(0, 0, 0)" stroke-linecap="butt" stroke-linejoin="round" stroke-opacity="1.0" stroke-width="3.0" />
            <path d=" M 900.890, 608.794 891.946, 613.266 883.002, 617.738 874.057, 622.210 865.113, 626.682 856.169, 631.154 847.225, 635.627 845.406, 636.536 " fill="none" stroke="rgb(0, 0, 0)" stroke-linecap="butt" stroke-linejoin="round" stroke-opacity="1.0" stroke-width="3.0" />
            <path d=" M 1058.261, 313.460 1062.971, 304.639 1067.680, 295.817 1072.389, 286.995 1077.099, 278.173 1079.144, 274.342 " fill="none" stroke="rgb(0, 0, 0)" stroke-linecap="butt" stroke-linejoin="round" stroke-opacity="1.0" stroke-width="3.0" />
            <path d=" M 1058.452, 313.365 1063.143, 304.534 1067.835, 295.703 1072.526, 286.871 1077.217, 278.040 1079.173, 274.358 1083.865, 265.527 1088.556, 256.696 1093.248, 247.864 1095.136, 244.310 " fill="none" stroke="rgb(0, 0, 0)" stroke-linecap="butt" stroke-linejoin="round" stroke-opacity="1.0" stroke-width="3.0" />
            <path d=" M 839.570, 724.225 830.626, 728.697 821.681, 733.169 818.874, 734.572 " fill="none" stroke="rgb(0, 0, 0)" stroke-linecap="butt" stroke-linejoin="round" stroke-opacity="1.0" stroke-width="3.0" />
            <path d=" M 1029.577, 629.221 1020.633, 633.693 1011.688, 638.165 1002.744, 642.637 993.800, 647.110 984.855, 651.582 975.911, 656.054 966.967, 660.526 958.023, 664.998 949.078, 669.470 940.134, 673.942 936.539, 675.740 " fill="none" stroke="rgb(0, 0, 0)" stroke-linecap="butt" stroke-linejoin="round" stroke-opacity="1.0" stroke-width="3.0" />
            <path d=" M 818.874, 748.705 827.818, 744.233 836.763, 739.760 840.201, 738.041 " fill="none" stroke="rgb(0, 0, 0)" stroke-linecap="butt" stroke-linejoin="round" stroke-opacity="1.0" stroke-width="3.0" />
            <path d=" M 1165.581, 196.608 1165.581, 206.608 1165.581, 216.608 1165.581, 226.608 1165.581, 236.608 1165.581, 246.608 1165.581, 256.608 1165.581, 259.801 " fill="none" stroke="rgb(0, 0, 0)" stroke-linecap="butt" stroke-linejoin="round" stroke-opacity="1.0" stroke-width="3.0" />
            <path d=" M 1242.599, 236.124 1242.599, 226.124 1242.599, 216.124 1242.599, 206.124 1242.599, 196.124 1242.599, 186.124 1242.599, 176.124 1242.599, 166.124 1242.599, 158.099 " fill="none" stroke="rgb(0, 0, 0)" stroke-linecap="butt" stroke-linejoin="round" stroke-opacity="1.0" stroke-width="3.0" />
        </g>
    </g>
</svg>
